<svg width="83" height="45" viewBox="0 0 83 45" fill="none" xmlns="http://www.w3.org/2000/svg">
<path d="M4.788 36H0.576L9.9 10.8H13.932L23.256 36H19.044L17.532 31.86H6.3L4.788 36ZM11.916 16.2L7.632 28.044H16.2L11.916 16.2ZM29.9559 36H25.9959V10.8L29.9559 10.368V36ZM40.7368 36H36.7768V21.744H33.1408V18H36.7768V10.8L40.7368 10.368V18H46.1368V21.744H40.7368V36ZM56.2185 36.216C50.8905 36.216 47.0025 32.256 47.0025 27C47.0025 21.744 50.8905 17.784 56.2185 17.784C61.5465 17.784 65.4345 21.744 65.4345 27C65.4345 32.256 61.5465 36.216 56.2185 36.216ZM56.2185 32.4C59.3145 32.4 61.4025 30.132 61.4025 27C61.4025 23.868 59.3145 21.6 56.2185 21.6C53.1225 21.6 51.0345 23.868 51.0345 27C51.0345 30.132 53.1225 32.4 56.2185 32.4Z" fill="#24335F"/>
<path d="M80.1934 32.7073H78.0645V33.2889H80.1934V34.4998L82.9995 32.9966L80.1934 31.4963V32.7073Z" fill="#24335F"/>
<path d="M73.3751 30.0498C71.9818 30.0498 70.8477 31.2667 70.8477 32.761C70.8477 34.2761 71.9818 35.5109 73.3751 35.5109C74.7489 35.5109 75.8663 34.2791 75.8663 32.761C75.8691 31.2667 74.7489 30.0498 73.3751 30.0498Z" fill="#24335F"/>
</svg>
