<?xml version="1.0" encoding="UTF-8"?>
<svg xmlns="http://www.w3.org/2000/svg" width="660" height="240" viewBox="0 0 660 240" fill="none">
  <path d="M63.7783 161.244L63.8076 161.261V161.295L55.1359 166.302L55.1066 166.285V166.251L63.7783 161.244ZM58.1622 155.516C57.3919 155.498 56.6257 155.634 55.9088 155.917C55.1919 156.199 54.5387 156.622 53.9875 157.16C53.4364 157.699 52.9984 158.342 52.6993 159.052C52.4003 159.762 52.2462 160.525 52.2461 161.296V164.598C52.2461 165.612 52.5131 166.609 53.0204 167.488C53.5276 168.367 54.2572 169.096 55.1359 169.604L57.9963 171.257C58.8752 171.765 59.8721 172.032 60.8868 172.031C61.9015 172.031 62.8984 171.764 63.7771 171.257C64.6559 170.75 65.3857 170.02 65.8932 169.141C66.4006 168.262 66.6679 167.266 66.6681 166.251V162.947C66.6681 161.932 66.401 160.935 65.8938 160.056C65.3865 159.177 64.6569 158.448 63.7783 157.94L60.9178 156.289C60.0786 155.805 59.131 155.539 58.1622 155.516ZM58.1622 99.3548C57.3919 99.3369 56.6257 99.4731 55.9088 99.7555C55.1919 100.038 54.5387 100.461 53.9875 100.999C53.4364 101.538 52.9984 102.181 52.6993 102.891C52.4003 103.601 52.2462 104.364 52.2461 105.134V128.26C52.2461 129.274 52.5131 130.271 53.0204 131.15C53.5276 132.029 54.2572 132.759 55.1359 133.266L83.7164 149.766V182.768C83.7164 183.782 83.9835 184.779 84.4907 185.658C84.998 186.537 85.7275 187.267 86.6062 187.774L106.632 199.336C107.511 199.843 108.508 200.11 109.523 200.11C110.537 200.11 111.534 199.843 112.413 199.335C113.292 198.828 114.021 198.098 114.529 197.219C115.036 196.341 115.304 195.344 115.304 194.329V134.866C115.304 133.851 115.037 132.854 114.53 131.976C114.022 131.097 113.293 130.367 112.414 129.859L60.9178 100.128C60.0786 99.6433 59.131 99.3775 58.1622 99.3548ZM83.9115 58.0617C82.8509 58.0369 81.8039 58.3043 80.8852 58.8348L60.8568 70.3962C59.9782 70.9038 59.2486 71.6336 58.7414 72.5124C58.2341 73.3912 57.9671 74.388 57.9671 75.4027C57.9671 76.4174 58.2341 77.4142 58.7414 78.293C59.2486 79.1718 59.9782 79.9017 60.8568 80.4092L132.352 121.688V204.24C132.352 205.254 132.62 206.251 133.127 207.13C133.635 208.009 134.364 208.738 135.243 209.246C136.122 209.753 137.119 210.02 138.133 210.02C139.148 210.02 140.145 209.753 141.024 209.246L161.05 197.685C161.928 197.177 162.658 196.447 163.165 195.568C163.672 194.69 163.94 193.693 163.94 192.678V106.788C163.94 105.773 163.672 104.776 163.165 103.897C162.658 103.019 161.928 102.289 161.05 101.781L86.6647 58.8348C85.8262 58.3506 84.8795 58.0848 83.9115 58.0617ZM132.547 29.9811C131.487 29.9562 130.44 30.2237 129.521 30.7541L109.493 42.318C108.614 42.8256 107.884 43.5554 107.377 44.4342C106.87 45.313 106.603 46.3098 106.603 47.3245C106.603 48.3392 106.87 49.336 107.377 50.2148C107.884 51.0936 108.614 51.8235 109.493 52.331L180.988 93.607V176.161C180.988 177.176 181.255 178.173 181.763 179.052C182.27 179.93 183 180.66 183.879 181.167C184.758 181.675 185.754 181.942 186.769 181.942C187.784 181.942 188.781 181.675 189.66 181.168L209.686 169.604C210.564 169.096 211.294 168.367 211.801 167.488C212.308 166.609 212.575 165.612 212.575 164.598V78.7071C212.575 77.6924 212.308 76.6955 211.801 75.8167C211.294 74.9379 210.564 74.2081 209.686 73.7006L135.3 30.7541C134.462 30.27 133.515 30.0042 132.547 29.9811Z" fill="#FFAC3E"></path>
  <path d="M265.914 161.795V54.8084C265.914 52.8951 266.931 51.3538 268.964 50.1845C271.117 49.0153 273.868 48.4307 277.217 48.4307C280.566 48.4307 283.377 49.0153 285.65 50.1845C287.923 51.3538 289.059 52.8951 289.059 54.8084V103.758C291.092 100.356 294.083 97.4861 298.03 95.1476C302.097 92.8091 306.761 91.6399 312.024 91.6399C320.756 91.6399 328.232 94.8287 334.451 101.206C340.791 107.584 343.961 115.184 343.961 124.007V137.081C343.961 145.691 340.791 153.291 334.451 159.882C328.112 166.472 320.816 169.767 312.563 169.767C307.18 169.767 302.156 168.545 297.492 166.1C292.827 163.549 289.537 160.573 287.624 157.171V161.795C287.624 163.389 286.547 164.878 284.394 166.259C282.361 167.641 279.968 168.332 277.217 168.332C273.988 168.332 271.297 167.694 269.144 166.419C266.991 165.037 265.914 163.496 265.914 161.795ZM289.059 139.951C289.059 141.971 290.674 144.469 293.903 147.445C297.252 150.315 301.02 151.75 305.206 151.75C309.393 151.75 313.041 150.262 316.151 147.286C319.261 144.203 320.816 140.802 320.816 137.081V124.007C320.816 120.287 319.261 116.991 316.151 114.121C313.041 111.145 309.333 109.657 305.027 109.657C300.96 109.657 297.252 110.986 293.903 113.643C290.674 116.3 289.059 119.755 289.059 124.007V139.951Z" fill="#444444"></path>
  <path d="M355.719 137.081V123.528C355.719 114.812 359.546 107.318 367.201 101.047C374.857 94.7754 384.126 91.6396 395.011 91.6396C405.178 91.6396 413.85 94.5096 421.027 100.25C428.323 105.883 431.971 113.005 431.971 121.615C431.971 124.804 431.493 127.461 430.536 129.587C429.698 131.607 428.323 133.042 426.409 133.892C424.615 134.743 422.94 135.274 421.385 135.487C419.831 135.699 417.797 135.806 415.285 135.806H378.864V138.197C378.864 142.768 380.777 146.488 384.605 149.358C388.432 152.122 393.516 153.504 399.855 153.504C404.401 153.504 408.886 152.494 413.312 150.474C417.737 148.455 420.608 147.445 421.924 147.445C424.436 147.445 426.529 148.508 428.203 150.634C429.878 152.653 430.715 154.62 430.715 156.533C430.715 159.509 427.665 162.486 421.565 165.462C415.584 168.332 408.109 169.767 399.138 169.767C386.339 169.767 375.873 166.791 367.74 160.838C359.726 154.779 355.719 146.86 355.719 137.081ZM378.864 123.688H405.059C406.972 123.688 408.288 123.422 409.006 122.891C409.843 122.253 410.262 121.084 410.262 119.383C410.262 115.662 408.707 112.633 405.597 110.295C402.606 107.956 398.899 106.787 394.473 106.787C390.286 106.787 386.638 107.956 383.528 110.295C380.419 112.527 378.864 115.503 378.864 119.223V123.688Z" fill="#444444"></path>
  <path d="M442.623 137.081V123.528C442.623 114.812 446.451 107.318 454.106 101.047C461.761 94.7754 471.031 91.6396 481.915 91.6396C492.082 91.6396 500.754 94.5096 507.931 100.25C515.227 105.883 518.875 113.005 518.875 121.615C518.875 124.804 518.397 127.461 517.44 129.587C516.603 131.607 515.227 133.042 513.313 133.892C511.519 134.743 509.845 135.274 508.29 135.487C506.735 135.699 504.701 135.806 502.19 135.806H465.768V138.197C465.768 142.768 467.682 146.488 471.509 149.358C475.337 152.122 480.42 153.504 486.76 153.504C491.305 153.504 495.79 152.494 500.216 150.474C504.642 148.455 507.512 147.445 508.828 147.445C511.34 147.445 513.433 148.508 515.108 150.634C516.782 152.653 517.62 154.62 517.62 156.533C517.62 159.509 514.569 162.486 508.469 165.462C502.489 168.332 495.013 169.767 486.042 169.767C473.244 169.767 462.778 166.791 454.644 160.838C446.63 154.779 442.623 146.86 442.623 137.081ZM465.768 123.688H491.963C493.877 123.688 495.192 123.422 495.91 122.891C496.747 122.253 497.166 121.084 497.166 119.383C497.166 115.662 495.611 112.633 492.501 110.295C489.511 107.956 485.803 106.787 481.377 106.787C477.191 106.787 473.543 107.956 470.433 110.295C467.323 112.527 465.768 115.503 465.768 119.223V123.688Z" fill="#444444"></path>
  <path d="M524.863 194.8C524.863 189.06 526.837 186.19 530.784 186.19C536.406 186.19 541.908 184.383 547.29 180.769C552.793 177.155 555.843 171.149 556.441 162.752L525.581 104.077C525.103 103.014 524.863 102.11 524.863 101.366C524.863 98.8149 526.598 96.5295 530.066 94.5099C533.655 92.4903 537.064 91.4805 540.293 91.4805C543.882 91.4805 546.094 92.6497 546.932 94.9882L568.462 142.662L585.865 94.9882C586.702 92.6497 588.736 91.4805 591.965 91.4805C595.075 91.4805 598.484 92.5434 602.192 94.6693C605.9 96.689 607.754 99.0275 607.754 101.685C607.754 102.535 607.575 103.332 607.216 104.077L581.021 163.549L577.971 170.564C576.535 174.178 575.459 176.676 574.741 178.058C574.143 179.44 573.007 181.566 571.332 184.436C569.777 187.412 568.342 189.538 567.026 190.814C565.83 192.196 564.096 193.843 561.823 195.757C559.551 197.776 557.218 199.211 554.826 200.061C552.553 201.018 549.742 201.815 546.393 202.453C543.044 203.197 539.396 203.569 535.449 203.569C531.98 203.569 529.349 202.985 527.555 201.815C525.76 200.646 524.863 198.308 524.863 194.8Z" fill="#444444"></path>
</svg>
