<?xml version="1.0" encoding="UTF-8"?>
<svg width="217px" height="165px" viewBox="0 0 217 165" version="1.1" xmlns="http://www.w3.org/2000/svg" xmlns:xlink="http://www.w3.org/1999/xlink">
    <!-- Generator: Sketch 54.1 (76490) - https://sketchapp.com -->
    <title>Otter Blue Vertical</title>
    <desc>Created with Sketch.</desc>
    <g id="Otter-Blue-Vertical" stroke="none" stroke-width="1" fill="none" fill-rule="evenodd">
        <path d="M49.3701728,146.736 C40.4241728,146.736 34.2921728,140.268 34.2921728,131.49 C34.2921728,122.712 40.4241728,116.244 49.3701728,116.244 C57.9801728,116.244 64.4061728,122.376 64.4061728,131.49 C64.4061728,140.562 57.9801728,146.736 49.3701728,146.736 Z M49.3701728,141.99 C54.8721728,141.99 59.1141728,137.58 59.1141728,131.49 C59.1141728,125.358 54.8721728,120.99 49.3701728,120.99 C43.5321728,120.99 39.5421728,125.652 39.5421728,131.49 C39.5421728,137.328 43.5321728,141.99 49.3701728,141.99 Z M75.8721728,146.736 C72.3441728,146.736 70.1601728,144.51 70.1601728,139.932 L70.1601728,129.894 L67.6401728,129.894 L67.6401728,125.904 L70.1601728,125.904 L70.1601728,119.1 L74.8641728,118.596 L74.8641728,125.904 L80.8701728,125.904 L80.8701728,129.894 L74.8641728,129.894 L74.8641728,139.47 C74.8641728,141.57 75.4941728,142.326 76.8381728,142.326 C77.6361728,142.326 78.7701728,142.032 79.8621728,141.444 L81.0801728,145.518 C79.8621728,146.19 78.5601728,146.736 75.8721728,146.736 Z M91.2021728,146.736 C87.6741728,146.736 85.4901728,144.51 85.4901728,139.932 L85.4901728,129.894 L82.9701728,129.894 L82.9701728,125.904 L85.4901728,125.904 L85.4901728,119.1 L90.1941728,118.596 L90.1941728,125.904 L96.2001728,125.904 L96.2001728,129.894 L90.1941728,129.894 L90.1941728,139.47 C90.1941728,141.57 90.8241728,142.326 92.1681728,142.326 C92.9661728,142.326 94.1001728,142.032 95.1921728,141.444 L96.4101728,145.518 C95.1921728,146.19 93.8901728,146.736 91.2021728,146.736 Z M119.174173,135.9 C119.174173,136.656 119.090173,137.412 119.048173,137.79 L104.096173,137.79 C104.726173,140.688 106.910173,142.452 109.934173,142.452 C112.328173,142.452 114.008173,141.36 115.058173,140.058 L118.334173,142.872 C116.612173,145.098 113.714173,146.736 109.682173,146.736 C103.718173,146.736 99.2241728,142.536 99.2241728,136.152 C99.2241728,129.852 103.508173,125.61 109.220173,125.61 C115.268173,125.61 119.174173,129.936 119.174173,135.9 Z M109.472173,129.852 C106.868173,129.852 104.852173,131.322 104.180173,134.01 L114.428173,134.01 C113.840173,131.532 112.160173,129.852 109.472173,129.852 Z M135.176173,125.61 L135.764173,125.61 L135.764173,130.86 C135.218173,130.818 134.672173,130.776 134.336173,130.776 C130.766173,130.776 128.750173,133.338 128.750173,136.698 L128.750173,146.4 L124.046173,146.4 L124.046173,125.904 L128.750173,125.904 L128.750173,129.012 L128.792173,129.012 C130.388173,126.828 132.698173,125.61 135.176173,125.61 Z M142.274173,146.736 C140.510173,146.736 139.082173,145.35 139.082173,143.628 C139.082173,141.906 140.510173,140.478 142.274173,140.478 C143.996173,140.478 145.424173,141.906 145.424173,143.628 C145.424173,145.35 143.996173,146.736 142.274173,146.736 Z M166.046173,125.904 L170.750173,125.904 L170.750173,146.4 L166.256173,146.4 L166.256173,143.67 L166.172173,143.67 C164.702173,145.644 162.476173,146.736 159.662173,146.736 C153.992173,146.736 149.750173,142.578 149.750173,136.236 C149.750173,130.062 153.992173,125.61 159.620173,125.61 C162.224173,125.61 164.450173,126.576 165.962173,128.382 L166.046173,128.382 L166.046173,125.904 Z M160.418173,142.452 C163.610173,142.452 166.256173,139.974 166.256173,136.278 C166.256173,132.624 163.778173,129.852 160.418173,129.852 C157.142173,129.852 154.538173,132.33 154.538173,136.278 C154.538173,139.89 156.932173,142.452 160.418173,142.452 Z M179.318173,122.88 C177.554173,122.88 176.168173,121.452 176.168173,119.73 C176.168173,118.05 177.554173,116.622 179.318173,116.622 C181.082173,116.622 182.510173,118.05 182.510173,119.73 C182.510173,121.452 181.082173,122.88 179.318173,122.88 Z M176.966173,146.4 L176.966173,125.904 L181.670173,125.904 L181.670173,146.4 L176.966173,146.4 Z" id="Otter.ai" fill="#05294B"></path>
        <g id="logo-otter" transform="translate(16.000000, 16.000000)" fill="#007AFF">
            <path d="M119,1 L119,1 C124.522847,1 129,5.4771525 129,11 L129,62 C129,67.5228475 124.522847,72 119,72 L119,72 C113.477153,72 109,67.5228475 109,62 L109,11 C109,5.4771525 113.477153,1 119,1 Z" id="Rectangle-3-Copy-5"></path>
            <path d="M91,1 L91,1 C96.5228475,1 101,5.4771525 101,11 L101,62 C101,67.5228475 96.5228475,72 91,72 L91,72 C85.4771525,72 81,67.5228475 81,62 L81,11 C81,5.4771525 85.4771525,1 91,1 Z" id="Rectangle-3-Copy-4"></path>
            <path d="M147,24 L147,24 C152.522847,24 157,28.4771525 157,34 L157,40 C157,45.5228475 152.522847,50 147,50 L147,50 C141.477153,50 137,45.5228475 137,40 L137,34 C137,28.4771525 141.477153,24 147,24 Z" id="Rectangle-3-Copy-3"></path>
            <path d="M175,14 L175,14 C180.522847,14 185,18.4771525 185,24 L185,49 C185,54.5228475 180.522847,59 175,59 L175,59 C169.477153,59 165,54.5228475 165,49 L165,24 C165,18.4771525 169.477153,14 175,14 Z" id="Rectangle-3-Copy-2"></path>
            <path d="M36.5365318,53.8373736 C46.2424249,53.8373736 54.1106058,45.9691926 54.1106058,36.2632995 C54.1106058,26.5574064 46.2424249,18.6892254 36.5365318,18.6892254 C26.8306387,18.6892254 18.9624577,26.5574064 18.9624577,36.2632995 C18.9624577,45.9691926 26.8306387,53.8373736 36.5365318,53.8373736 Z M36.5,73 C16.3416066,73 0,56.6583934 0,36.5 C0,16.3416066 16.3416066,0 36.5,0 C56.6583934,0 73,16.3416066 73,36.5 C73,56.6583934 56.6583934,73 36.5,73 Z" id="Mask-Copy" fill-rule="nonzero"></path>
        </g>
    </g>
</svg>