<svg width="127" height="40" viewBox="0 0 127 40" fill="none" xmlns="http://www.w3.org/2000/svg">
<path fill-rule="evenodd" clip-rule="evenodd" d="M15.3459 0.179716C16.1316 0.078167 16.9268 -0.0718637 17.7186 0.0391521C17.1879 0.188034 16.6173 0.149019 16.1009 0.360437C15.405 0.602549 14.9205 1.2675 14.1744 1.38941C13.607 1.50961 13.0281 1.38941 12.4756 1.25201C11.5616 1.03141 10.5413 1.10743 9.72369 1.59567C9.17779 1.96199 8.7452 2.58506 8.76787 3.26292C8.77733 3.56269 8.94916 3.81914 9.0794 4.07789C8.94716 4.70153 9.03953 5.3398 9.27705 5.92586C9.42249 5.20469 9.69415 4.45856 10.2994 3.99671C10.8118 3.59252 11.4695 3.37565 12.1222 3.40348C12.825 3.37967 13.4624 3.80049 14.1712 3.72361C14.9581 3.73624 15.699 3.26693 16.0533 2.56928C15.543 2.94364 14.9059 3.18202 14.2676 3.0535C13.0915 2.82573 11.9142 2.17829 10.6927 2.5099C10.0659 2.65046 9.61698 3.14702 9.29426 3.67342C9.31778 3.06613 9.60981 2.44335 10.1775 2.17025C11.0301 1.76922 12.0249 1.8111 12.9274 1.99785C13.6219 2.19779 14.3709 2.28816 15.078 2.09854C15.7102 1.87679 16.1414 1.32602 16.4951 0.784997C16.576 0.630951 16.7521 0.743972 16.7656 0.878511C17.0114 1.54145 16.9601 2.25947 16.8617 2.94622C17.411 2.30996 17.7214 1.52395 18.043 0.759465C18.1669 0.44535 18.502 0.377938 18.8052 0.400313C18.8494 0.674267 18.8697 0.956538 18.798 1.22848C18.4701 2.66108 17.5849 4.04003 16.2151 4.65994C15.4954 5.00933 14.6847 5.04462 13.8996 4.98409C13.2409 4.9336 13.4127 4.93331 13.1824 4.91639C13.9733 5.16367 14.751 5.51278 15.5963 5.52196C16.6795 5.60199 17.7653 5.12809 18.4601 4.29562C19.3692 3.18431 19.7808 1.73652 19.8433 0.319418C21.0553 0.544319 22.2828 0.661072 23.5 0.852983C24.4191 0.98953 25.3525 0.950514 26.2745 1.06038C25.4793 1.3352 24.6474 1.52711 23.802 1.49641C23.2814 1.51678 22.7805 1.35299 22.2642 1.31799C22.2343 1.34983 22.1738 1.41351 22.1434 1.44621C22.7418 2.24857 23.8686 2.53515 24.8164 2.28357C24.6044 2.50732 24.4013 2.75947 24.1084 2.87967C23.5797 3.11776 23.0106 2.91208 22.4575 2.97835C22.5516 3.283 22.7008 3.60514 23.0008 3.74886C23.5878 4.069 24.2794 4.01536 24.9248 4.01536C24.51 4.43303 24.0069 4.83033 23.3961 4.87336C22.885 4.88283 22.3726 4.77066 21.8981 4.5842C21.4392 4.40463 21.1245 4.01249 20.7702 3.68948C20.7957 3.72964 20.8471 3.80853 20.8726 3.84869C21.1471 4.55322 21.5654 5.28214 22.2917 5.59281C22.9874 5.87595 23.7794 5.68116 24.4156 5.33234C24.8307 5.12809 25.1994 4.82545 25.6483 4.69321C25.9813 4.58019 26.3256 4.61031 26.6555 4.76493C27.0304 5.15391 27.1813 5.78386 26.8921 6.26522C26.5992 6.7176 26.1156 6.99041 25.7384 7.3639C25.891 6.88169 26.3362 6.24371 25.9977 5.87566C25.4323 5.67228 24.9527 5.94279 24.4033 6.08019C23.4811 6.35214 22.4985 6.66396 21.5344 6.42185C20.5404 6.21875 19.8806 5.11863 18.7906 5.26952C17.2906 5.52712 15.9239 6.29649 14.7312 7.22019C14.0292 7.76092 13.3491 8.42673 13.1153 9.31227C12.8663 10.2698 12.761 11.2641 12.4145 12.1955C12.3631 12.4173 12.1807 12.6832 12.3723 12.8831C12.6273 13.2291 13.0814 12.9652 13.4165 12.9222C14.938 12.6227 16.4914 12.1823 18.0516 12.4173C18.5648 12.5283 19.193 12.645 19.4512 13.1666C19.7656 13.7802 19.8046 14.4901 19.8333 15.1674C19.6047 14.8114 19.4369 14.3897 19.076 14.1413C18.827 13.9546 18.5011 14.2039 18.4357 14.4606C18.2338 15.2001 18.3158 16.092 17.6907 16.6482C16.8075 17.4227 16.1589 18.7145 16.6334 19.8791C17.0809 20.7351 17.4836 21.6821 17.3649 22.6712C17.3187 23.2549 16.7974 23.6431 16.6939 24.2082C16.5998 24.5845 16.7105 25.1061 17.1356 25.2179C17.6531 25.3944 18.1592 25.0774 18.6732 25.0516C19.1643 24.991 19.6322 25.1749 20.1118 25.2363C20.2197 24.7191 20.0341 24.207 20.0269 23.6898C19.8815 22.1167 20.119 20.5418 20.074 18.9666C20.0946 18.1726 19.9684 17.248 19.9968 16.454C20.5829 18.693 20.6007 21.1614 20.9584 23.4385C21.0548 23.8972 21.1141 24.3817 21.3528 24.794C21.6684 25.3367 22.481 25.5217 22.9851 25.1348C23.2648 24.9305 23.3947 24.5972 23.5548 24.3037C23.7934 24.6078 23.8893 24.985 23.7519 25.3499C23.4991 25.9735 22.6982 26.2202 22.5014 26.88C22.3018 27.4753 22.0863 28.1924 21.4552 28.4592C20.6684 28.7159 19.7014 28.4776 19.2094 27.7839C18.9205 27.3838 18.5249 27.0504 18.0476 26.9007C17.5241 26.72 16.9655 26.8402 16.4257 26.8227C15.9125 26.8258 15.436 26.3752 15.4308 25.8559C15.4125 25.2968 15.6818 24.7624 15.5949 24.1999C15.4925 23.1666 14.7028 22.3476 13.8491 21.8407C13.3554 21.5329 12.7619 21.7504 12.2223 21.6901C11.4701 21.6686 10.7398 21.1769 9.98445 21.4543C9.41589 21.6287 9.17091 22.2452 9.09087 22.7842C9.02518 23.3691 9.04268 23.9796 9.24664 24.5378C9.79885 26.1107 10.6044 27.6018 10.9351 29.2458C11.0008 30.2091 10.9649 31.2228 11.3929 32.1167C11.5108 32.3875 11.7403 32.5817 11.9512 32.7785C12.2639 32.806 12.6471 32.9282 12.8978 32.6709C13.2639 32.3126 13.0975 31.7432 13.0129 31.3043C12.8364 30.6107 12.8255 29.8009 13.3017 29.2182C13.6419 28.8129 14.1081 28.3757 14.6807 28.4457C14.8938 28.4446 15.0588 28.5966 15.234 28.697C15.2412 28.8531 15.2504 29.0111 15.2584 29.168C15.8775 29.3631 16.5361 29.2266 17.1365 29.0326C17.9254 28.7547 18.7544 28.5298 19.5975 28.5676C20.2091 28.5903 20.7194 29.0757 21.3454 29.0008C21.7676 29.0008 22.0625 28.6293 22.4613 28.5645C23.1334 28.6262 23.6127 29.3023 24.3207 29.2071C24.743 29.2297 25.0183 28.8585 25.2019 28.5272C25.241 28.528 25.3187 28.5315 25.3577 28.5324C25.4274 28.613 25.4745 28.6589 25.5011 28.7722C25.5648 29.473 25.5769 30.267 25.0955 30.8367C24.9716 30.9988 24.7226 31.1629 24.5393 30.9905C24.2739 30.7237 24.1038 30.372 23.8026 30.1379C23.35 29.7664 22.7318 29.6569 22.1615 29.7271C21.4188 29.8207 20.6666 29.8462 19.9208 29.7796C19.5958 29.7684 19.2177 29.6924 18.9546 29.9334C18.5396 30.306 18.2989 31.0519 18.7332 31.4982C19.1136 31.8172 19.6514 31.7383 20.1113 31.7271C20.9658 31.6379 21.8276 31.5662 22.687 31.6233C22.9073 31.6399 23.2349 31.726 23.2349 32.0008C23.1408 32.4738 22.7381 32.829 22.2954 32.9819C21.2711 33.3666 20.1543 33.3359 19.0774 33.3112C17.7845 33.2578 16.5941 32.5777 15.2917 32.6144C14.9331 32.6419 14.4363 32.9027 14.5593 33.3347C14.792 33.8571 15.294 34.2613 15.3339 34.8646C15.3892 35.8221 15.4638 36.8881 16.1268 37.6431C16.6993 38.224 17.5304 38.6345 18.3623 38.498C19.1113 38.3634 19.8571 38.1707 20.6236 38.1807C21.3009 38.1437 22.0006 38.2774 22.6583 38.0588C23.399 37.831 24.0344 37.3126 24.4555 36.6675C25.0488 35.7963 25.3416 34.7713 25.6635 33.7802C26.101 32.3476 26.4492 30.8898 26.7668 29.4254C27.1225 27.8554 27.8663 26.4159 28.3907 24.9033C29.0648 22.7894 29.4182 20.5065 28.9246 18.3134C28.8262 18.3066 28.7937 18.2523 28.6962 18.242C28.5149 18.5231 28.1715 18.7498 27.8591 18.8697C27.9575 18.491 28.2378 18.1677 28.1374 17.7627C27.7992 18.1955 27.4386 18.6089 26.8812 18.6307C26.1773 18.7394 25.5769 18.3003 24.9294 18.1278C24.6753 18.0633 24.8239 18.3826 24.9202 18.4592C25.2817 18.8809 25.8333 19.0484 26.2995 19.3203C25.9963 19.8005 25.3589 19.6385 24.9059 19.5102C24.2932 19.349 23.8015 18.8063 23.1325 18.8763C23.0249 19.5934 23.2186 20.3077 23.2358 21.0249C23.2461 21.5217 23.2788 22.0255 23.1652 22.514C22.7329 20.5653 22.4429 18.5871 22.1067 16.6201C21.9469 15.7305 21.7186 14.847 21.6907 13.9388C21.6744 13.5263 21.831 13.0911 22.1701 12.8407C22.4641 12.6313 22.8144 12.5042 23.1712 12.4549C24.6231 12.3195 26.0901 12.5521 27.4613 13.0346C28.1386 13.2142 28.8761 13.5722 29.5697 13.2592C29.6219 12.1889 29.7243 11.1158 29.6434 10.0446C29.58 9.14991 29.245 8.25834 28.6239 7.60257C28.1641 7.92787 27.7418 8.32575 27.2019 8.51766C26.7665 8.69322 26.288 8.64991 25.8342 8.74056C25.5381 8.79793 25.2848 8.97034 25.0195 9.10287C25.1251 8.47607 25.6188 7.90636 26.255 7.78731C26.7662 7.6631 27.3104 7.60573 27.7714 7.33177C28.4814 6.93791 28.9096 6.17658 29.1053 5.40979C29.3112 4.58277 29.1176 3.71989 28.7651 2.96142C29.422 3.51449 29.9073 4.283 30.0866 5.12637C30.2834 6.00704 30.1612 6.96115 30.6061 7.7787C30.0138 7.59196 29.7935 6.97119 29.6205 6.43877C29.4914 6.8748 29.4799 7.34784 29.6162 7.78416C29.8018 8.30223 30.4716 8.40894 30.6417 8.93333C30.7481 9.21646 30.7461 9.52455 30.7963 9.81887C30.8999 9.56213 30.9837 9.29563 30.9753 9.01336C30.9343 8.00877 31.0752 6.98983 30.8437 6.00073C30.7608 5.69608 30.648 5.40033 30.5631 5.09769C31.2751 5.51938 31.558 6.38341 31.5232 7.17458C31.5281 7.83436 31.2608 8.45914 31.2691 9.11921C31.2547 10.3978 31.3161 11.7397 30.7731 12.9302C30.646 13.273 30.2129 13.4506 30.2252 13.8456C30.2005 14.6172 29.7559 15.2739 29.5439 15.9953C29.3267 17.0409 29.3893 18.1161 29.4188 19.1772C29.5143 20.7802 29.5901 22.4076 29.2817 23.9939C28.8913 25.9486 28.3408 27.8694 27.6845 29.7512C26.8944 32.1041 26.459 34.5863 25.3812 36.8353C24.7616 38.1715 23.461 39.0837 22.0513 39.4162C20.374 39.7949 18.6549 40.0186 16.9337 39.9977C15.5671 39.9905 14.2013 40.0195 12.8353 39.9721C11.7851 39.8901 10.7429 39.7177 9.70734 39.5318C8.93999 39.3626 8.13275 39.189 7.50051 38.6925C6.98616 38.3241 6.59259 37.8161 6.2495 37.2908C5.44629 36.0011 4.92161 34.5656 4.43825 33.1319C3.73945 30.977 3.18609 28.7759 2.73113 26.5576C2.54983 25.699 2.45861 24.8212 2.20961 23.979C2.02401 23.267 1.61954 22.6411 1.3912 21.9443C1.03549 20.8533 0.736574 19.7196 0.762966 18.5622C0.723092 17.1884 1.07966 15.8275 0.945411 14.4517C0.818331 13.0521 0.635886 11.6577 0.551835 10.2538C0.534623 8.47865 0.909553 6.67887 1.79051 5.12637C2.36854 4.05092 3.20445 3.13756 4.13274 2.357C4.93108 1.74025 5.80601 1.18316 6.79368 0.931584C5.72913 1.61489 4.69413 2.51793 4.3499 3.78644C4.07336 4.70669 4.25667 5.72649 4.769 6.52999C5.04669 6.95484 5.44944 7.32632 5.95747 7.43906C5.67291 7.08909 5.35334 6.75661 5.17377 6.33693C4.8717 5.65879 4.91157 4.9075 5.06734 4.19436C5.15053 4.9927 5.29998 5.78702 5.77847 6.45111C6.21794 7.10171 6.93223 7.7285 7.77217 7.62179C7.96982 7.58393 8.10607 7.75604 8.25065 7.86103C8.69041 8.23023 9.18009 8.5845 9.75267 8.7024C10.1244 8.79076 10.4965 8.60057 10.7607 8.35128C10.4902 8.12065 10.1592 7.97779 9.8743 7.76752C8.65513 6.90033 7.75151 5.56757 7.46551 4.09195C7.38548 3.39 7.32925 2.59051 7.78221 1.99441C8.20131 1.43015 8.86626 1.16538 9.4747 0.865891C8.53207 0.994979 7.5487 1.3286 6.93395 2.09424C6.38978 2.80135 6.3347 3.75661 6.49132 4.60515C6.66775 5.45455 6.97498 6.28903 7.4833 6.99901C6.93223 6.82374 6.53464 6.35673 6.24663 5.87652C5.69241 4.94995 5.52747 3.77898 5.86654 2.74799C6.1861 1.79676 6.9985 1.06928 7.92707 0.728772C9.00568 0.337778 10.1666 0.314254 11.2997 0.277249C12.6491 0.256595 14.0117 0.451662 15.3459 0.179716ZM2.26727 5.71272C1.72338 6.76551 1.48041 7.98037 1.56733 9.16253C1.94254 8.27268 2.25781 7.32173 2.93538 6.60429C3.13704 6.35701 3.44571 6.16711 3.53377 5.84583C3.5768 5.43447 3.4764 5.02712 3.42735 4.6215C2.88403 4.75833 2.53979 5.2569 2.26727 5.71272ZM10.0243 5.59023C9.78652 6.12207 9.9156 6.7437 10.2507 7.20125C10.3367 6.68002 10.3132 6.0799 10.72 5.68174C11.1523 5.15649 11.8777 5.11949 12.4997 5.04577C12.1012 4.94393 11.716 4.7655 11.2989 4.7612C10.7627 4.75517 10.2076 5.07015 10.0243 5.59023ZM2.90239 8.09425C2.36653 8.68433 2.16171 9.49386 2.09802 10.2707C1.95861 11.5102 2.59917 12.6511 2.72109 13.8622C2.75293 14.5383 2.31346 15.1037 2.08913 15.7122C1.46951 17.3631 1.44857 19.3037 2.29395 20.8797C2.21822 20.0263 2.13905 19.1465 2.36768 18.3086C2.5441 17.6694 2.78363 17.0269 3.21191 16.5119C3.69556 15.9127 4.19958 15.2804 4.36883 14.5108C4.51111 13.7761 4.31662 13.0386 4.23372 12.3097C4.13418 11.7331 4.13532 11.147 4.14737 10.5656C4.11983 9.88715 4.71507 9.34956 4.58398 8.65794C4.30945 8.72564 4.01341 8.79621 3.81461 9.01393C3.50222 9.34956 3.38518 9.81313 3.29424 10.2512C3.07393 11.6029 3.75724 12.9069 3.61381 14.2561C3.48156 15.394 2.54926 16.1881 2.20502 17.248C2.16085 15.9193 3.36567 14.8748 3.16401 13.5234C3.00308 12.3321 2.52975 11.1582 2.69699 9.93849C2.82924 9.02197 3.43136 8.27096 4.0791 7.64904C4.08111 7.58249 4.08426 7.4491 4.08512 7.38226C3.5702 7.3421 3.21593 7.75145 2.90239 8.09425ZM8.72599 9.71245C8.29885 9.9319 8.16976 10.4276 7.94945 10.8163C7.62988 11.4537 6.94658 11.8014 6.61439 12.4305C6.39322 12.8017 6.22397 13.3209 6.52116 13.6995C6.80401 14.0619 7.30602 14.0619 7.72197 14.0217C8.66374 13.9107 9.59604 13.7242 10.5129 13.481C10.7966 12.8897 10.8184 12.2196 10.7857 11.5762C10.7478 10.9824 10.6279 10.349 10.2303 9.88428C9.85708 9.46001 9.19845 9.48038 8.72599 9.71245ZM10.2587 15.672C10.6881 15.6413 11.0978 15.5016 11.5037 15.3702C12.4575 15.0716 13.5086 14.8327 14.4873 15.1516C15.1052 15.3436 15.5447 15.8338 16.0324 16.228C15.8479 15.6955 15.5918 15.1752 15.1993 14.7647C14.7762 14.3358 14.1296 14.2153 13.5487 14.2495C12.3436 14.3946 11.2289 14.964 10.2587 15.672ZM26.2217 14.6407C26.2206 14.7188 26.2194 14.8748 26.2186 14.9526C25.3497 15.1301 24.6681 15.6875 24.1514 16.158C24.1956 16.1866 24.2197 16.203 24.2645 16.232C24.8921 15.674 26.4085 15.3048 27.1985 15.4394C26.8482 15.7391 26.3098 15.6689 26.0075 16.0435C25.9093 16.4405 26.3325 16.7208 26.3178 17.1126C26.3597 17.4572 26.2464 17.8634 26.5516 18.1158C26.8735 18.4411 27.442 18.2463 27.615 17.8697C27.8632 17.3814 28.1457 16.8711 28.1692 16.312C28.2131 15.8995 27.7676 15.7414 27.5287 15.4933C28.0861 15.3998 28.512 15.7848 28.8339 16.1829C28.922 15.8123 28.8511 15.3877 28.5522 15.131C27.9091 14.6006 27.0198 14.5114 26.2217 14.6407ZM12.5332 15.5931C11.646 15.7632 10.7946 16.106 10.0129 16.5547C9.6798 16.6881 9.60407 17.1918 9.89811 17.4044C10.3694 17.8272 10.9595 18.09 11.5424 18.3226C12.401 18.6591 13.3732 18.5699 14.2134 18.2191C14.7871 17.987 15.5077 17.7716 15.7472 17.1333C15.7378 16.7168 15.3947 16.4242 15.0895 16.1935C14.3539 15.6844 13.4205 15.4268 12.5332 15.5931ZM9.18095 17.3857C9.17865 18.3545 9.8654 19.1525 10.6594 19.6195C11.4667 20.0854 12.5304 19.9509 13.2751 19.4205C13.2794 19.3743 13.2862 19.281 13.2903 19.2348C12.4842 19.1835 11.6305 19.1938 10.9041 18.7896C10.2157 18.4764 9.68812 17.9293 9.18095 17.3857ZM3.08569 20.512C2.9741 22.2257 3.28248 23.9753 4.03664 25.5217C5.01312 27.8387 5.97096 30.1944 6.40842 32.6838C6.59603 33.9716 6.73545 35.3835 7.63476 36.4016C8.04784 36.9782 8.72598 37.4779 9.46982 37.3468C9.29369 36.8666 8.93798 36.4879 8.70763 36.0375C8.16689 35.0318 7.97326 33.8889 7.83069 32.7685C7.58571 31.026 7.48846 29.2682 7.31003 27.5197C7.00567 25.6236 6.57566 23.6279 5.26814 22.1471C4.4896 21.3221 4.1052 20.1913 4.07164 19.0688C4.06648 18.7171 4.04181 18.3636 3.96005 18.0211C3.3585 18.7073 3.14823 19.6247 3.08569 20.512ZM15.7599 29.9328C15.5691 29.9727 15.4105 30.1176 15.3244 30.29C15.2794 30.5269 15.5335 30.6695 15.7137 30.757C16.144 30.9538 16.7679 31.0656 17.0671 30.5966C17.2208 30.3892 17.6316 29.9922 17.2679 29.8158C16.7639 29.8077 16.2607 29.8775 15.7599 29.9328ZM25.3815 2.16624C25.9501 1.67169 26.8262 1.70668 27.4441 2.08735C28.1583 2.55723 28.6552 3.42614 28.5402 4.29447C28.4162 4.87938 28.1767 5.51565 27.6417 5.84095C27.8167 5.13814 27.7688 4.2853 27.1569 3.80394C26.6899 3.40577 26.0485 3.50646 25.4879 3.5558C25.6856 3.37422 25.8976 3.13354 26.1781 3.10084C26.4885 3.05265 26.8523 3.15018 27.0571 2.89171C26.6678 2.34983 26.0043 2.20841 25.3815 2.16624Z" fill="#24335F"/>
<path fill-rule="evenodd" clip-rule="evenodd" d="M62.0121 16.9399C62.1905 16.9399 62.3693 16.9411 62.548 16.942C64.019 21.1035 65.5179 25.2552 66.9972 29.4139C67.8053 31.6414 68.5658 33.8889 69.4106 36.1032C69.7514 37.0404 70.6117 37.6563 71.5316 37.9529C71.5273 38.1377 71.5428 38.3255 71.5182 38.5106C70.6713 38.5166 69.8285 38.3907 68.9794 38.3996C68.0073 38.3749 67.0402 38.5023 66.0692 38.5157C66.0617 38.3588 66.0537 38.2013 66.0465 38.0467C66.0179 38.0444 65.9613 38.0407 65.9338 38.0384C66.2921 37.8115 66.6524 37.5766 66.951 37.2736C67.2324 37.0077 67.0999 36.5846 67.0147 36.2593C66.5632 34.9813 66.0744 33.7154 65.6062 32.4434C62.7668 32.4446 59.9272 32.4383 57.0887 32.4463C56.7663 33.3476 56.4306 34.2441 56.1093 35.1462C55.9358 35.6924 55.8887 36.2768 55.9134 36.8473C56.0316 37.4747 56.6905 37.7467 57.2172 37.9644C57.2163 38.1474 57.2163 38.331 57.2172 38.5157C56.4134 38.5034 55.6156 38.3801 54.811 38.3996C54 38.3904 53.1962 38.5157 52.3861 38.5186C52.383 38.3307 52.381 38.144 52.3801 37.9572C52.873 37.794 53.3707 37.5763 53.7281 37.1853C54.1265 36.7564 54.3308 36.1967 54.5537 35.666C57.0425 29.4251 59.5267 23.1826 62.0121 16.9399ZM57.5884 31.1723C60.1271 31.1795 62.665 31.1784 65.2026 31.1723C64.0067 27.8852 62.8271 24.5911 61.6228 21.3069C60.2668 24.59 58.9335 27.8832 57.5884 31.1723Z" fill="#24335F"/>
<path fill-rule="evenodd" clip-rule="evenodd" d="M117.291 16.9428C117.467 16.9408 117.645 16.9399 117.823 16.9408C120.04 23.1493 122.259 29.3582 124.479 35.567C124.744 36.2888 125.096 37.0412 125.78 37.4529C126.091 37.6511 126.428 37.8051 126.77 37.9446C126.771 38.1345 126.771 38.3267 126.772 38.5183C125.781 38.4884 124.794 38.3737 123.802 38.4001C122.986 38.4044 122.175 38.4996 121.36 38.5203C121.353 38.3321 121.347 38.1456 121.345 37.9598C121.71 37.6824 122.165 37.4681 122.39 37.0493C122.451 36.7093 122.333 36.3697 122.231 36.0501C121.789 34.8482 121.326 33.6542 120.901 32.4471C118.058 32.4377 115.214 32.4428 112.37 32.4448C112.033 33.4345 111.63 34.4027 111.319 35.4012C111.206 35.9259 111.151 36.4793 111.236 37.0111C111.451 37.5234 112.009 37.7644 112.495 37.9575C112.492 38.1434 112.492 38.3301 112.49 38.518C111.502 38.4781 110.516 38.3508 109.528 38.4121C108.903 38.442 108.281 38.5108 107.655 38.518C107.655 38.3312 107.656 38.1465 107.659 37.9618C108.206 37.775 108.762 37.5203 109.126 37.0513C109.542 36.5163 109.746 35.8573 110.009 35.2414C112.429 29.1396 114.874 23.0469 117.291 16.9428ZM116.909 21.3016C115.553 24.5888 114.213 27.8831 112.872 31.1763C115.41 31.1775 117.948 31.172 120.486 31.1792C119.3 27.8851 118.103 24.594 116.909 21.3016Z" fill="#24335F"/>
<path fill-rule="evenodd" clip-rule="evenodd" d="M90.2925 16.9767C91.826 17.5065 93.4658 17.2128 95.0507 17.3401C97.378 17.3944 99.7062 17.452 102.033 17.3883C103.677 17.3711 105.317 17.2868 106.961 17.2991C107.68 17.3247 108.393 17.1881 109.079 16.9758C109.066 18.2343 109.031 19.4922 108.986 20.7495C108.801 20.7372 108.619 20.724 108.437 20.7096C108.189 19.917 107.717 19.0774 106.853 18.8536C105.787 18.5671 104.664 18.6864 103.573 18.6577C102.712 18.6741 101.848 18.6187 100.989 18.6927C100.976 24.2639 100.932 29.8342 100.919 35.4053C100.907 35.9945 100.802 36.6741 101.192 37.173C101.633 37.6658 102.325 37.7869 102.935 37.9532C102.935 38.1411 102.935 38.3302 102.935 38.5189C101.614 38.4902 100.296 38.3557 98.975 38.407C98.1046 38.4202 97.238 38.5201 96.3685 38.5138C96.3677 38.3282 96.3677 38.1434 96.3685 37.9584C96.9609 37.8066 97.5954 37.6822 98.0848 37.2912C98.4411 36.977 98.4778 36.465 98.4729 36.0224C98.4379 30.2346 98.4009 24.4454 98.3806 18.6568C96.7245 18.6784 95.0667 18.6118 93.413 18.701C92.7047 18.7309 91.9408 18.9535 91.5065 19.553C91.209 19.9001 91.1166 20.362 90.8794 20.7398C90.7122 20.7426 90.5466 20.7355 90.3814 20.7294C90.3685 19.4776 90.3097 18.2283 90.2925 16.9767Z" fill="#24335F"/>
<path fill-rule="evenodd" clip-rule="evenodd" d="M36.3875 17.293C37.2928 17.2953 38.1944 17.4008 39.0998 17.4143C40.5751 17.451 42.051 17.171 43.5244 17.365C44.9492 17.5239 46.4222 18.0067 47.4222 19.0833C48.3287 20.0339 48.689 21.3911 48.6448 22.6805C48.6592 24.0635 48.0051 25.4278 46.9222 26.287C46.1707 26.9161 45.2487 27.291 44.3198 27.5753C45.9512 27.9459 47.5556 28.8246 48.4159 30.3079C49.2444 31.6694 49.2516 33.3733 48.8523 34.8762C48.5258 36.0813 47.6965 37.1482 46.566 37.6952C44.7693 38.5825 42.6936 38.5842 40.7392 38.4396C39.2814 38.3401 37.8207 38.4373 36.3648 38.5185C36.362 38.3326 36.3608 38.147 36.3628 37.9631C36.6821 37.9436 37.0149 37.8863 37.2745 37.686C37.7303 37.3556 37.8935 36.7652 37.9122 36.2282C37.9047 30.9907 37.864 25.7531 37.8445 20.5164C37.8298 19.8667 37.835 19.2023 37.6371 18.5761C37.5447 18.2915 37.3476 18.0184 37.051 17.9264C36.8344 17.871 36.6098 17.8595 36.3889 17.8328C36.3886 17.6521 36.3875 17.4725 36.3875 17.293ZM40.7455 18.0526C40.4417 18.2958 40.4202 18.721 40.4079 19.0801C40.4019 21.7606 40.3924 24.4399 40.3823 27.1203C41.0895 27.1203 41.7989 27.139 42.5023 27.0443C43.5287 26.9356 44.5964 26.5905 45.2995 25.7982C46.0416 24.9493 46.2318 23.7718 46.2143 22.6794C46.1896 21.4241 45.8548 20.1048 44.969 19.1728C44.2011 18.3268 43.0565 17.8934 41.9294 17.8638C41.5318 17.8567 41.0935 17.8257 40.7455 18.0526ZM40.3562 36.2334C40.3666 36.5793 40.3491 36.9519 40.537 37.2577C40.6858 37.4907 40.9641 37.5925 41.2269 37.6252C42.4928 37.7116 43.854 37.5575 44.9102 36.7976C45.9079 36.1152 46.4469 34.9324 46.601 33.7609C46.7754 32.4078 46.6615 30.9327 45.8752 29.7758C45.2398 28.8119 44.1463 28.2279 43.0232 28.0512C42.1497 27.9 41.2607 27.9884 40.3806 27.9608C40.3757 30.7184 40.3666 33.476 40.3562 36.2334Z" fill="#24335F"/>
<path fill-rule="evenodd" clip-rule="evenodd" d="M83.0394 17.4153C84.2867 17.4153 85.53 17.3114 86.7773 17.2939C86.775 18.4448 86.775 19.5954 86.7781 20.7463C86.5902 20.734 86.4043 20.7197 86.2196 20.705C86.1674 20.1827 86.0062 19.6477 85.6387 19.2587C85.2549 18.876 84.7087 18.6933 84.1737 18.691C82.445 18.6786 80.7173 18.6961 78.9886 18.6829C78.9907 21.4956 78.9915 24.3086 78.9875 27.1224C80.4092 27.1164 81.8315 27.1253 83.2529 27.1181C83.8472 27.0894 84.4941 27.0453 84.9809 26.6614C85.3596 26.3605 85.5021 25.878 85.6645 25.4429C85.8401 25.4254 86.0176 25.4297 86.1975 25.4245C86.1757 25.9799 86.1473 26.5352 86.1123 27.0897C86.0733 27.9942 86.1573 28.8998 86.2663 29.7957C86.0785 29.7928 85.8917 29.7897 85.7058 29.7885C85.5426 29.2659 85.2798 28.722 84.7735 28.4561C84.0868 28.0989 83.2853 28.1626 82.5354 28.1503C81.3538 28.1503 80.1722 28.1503 78.9907 28.1503C78.9895 30.8419 78.9886 33.5338 78.9907 36.2254C78.9927 36.7911 79.1619 37.4257 79.6527 37.7633C79.8736 37.9369 80.1611 37.9595 80.4267 38.0149C80.4207 38.1925 80.4175 38.37 80.4166 38.5487C79.6106 38.5355 78.8111 38.4326 78.0053 38.4225C77.0403 38.3918 76.0824 38.5321 75.1186 38.5459C75.1154 38.3672 75.1143 38.1896 75.1134 38.012C75.4387 37.9607 75.785 37.8958 76.0322 37.6589C76.4049 37.2865 76.5581 36.7401 76.5457 36.2229C76.5446 33.3505 76.5457 30.4782 76.5457 27.6058C76.5517 24.7323 76.5414 21.8427 76.1094 18.9948C76.0385 18.7073 76.0704 18.3048 75.7491 18.1651C75.3796 18.0059 74.9688 18.0048 74.5747 17.9752C74.5724 17.7873 74.5724 17.5995 74.5715 17.4124C77.3945 17.4205 80.2167 17.413 83.0394 17.4153Z" fill="#24335F"/>
</svg>
