<svg width="61" height="60" viewBox="0 0 61 60" fill="none" xmlns="http://www.w3.org/2000/svg">
<path d="M28 42.5H33V27.5H28V42.5ZM30.5 22.5C31.2083 22.5 31.8025 22.26 32.2825 21.78C32.7625 21.3 33.0017 20.7067 33 20C33 19.2917 32.76 18.6983 32.28 18.22C31.8 17.7417 31.2067 17.5017 30.5 17.5C29.7917 17.5 29.1983 17.74 28.72 18.22C28.2417 18.7 28.0017 19.2933 28 20C28 20.7083 28.24 21.3025 28.72 21.7825C29.2 22.2625 29.7933 22.5017 30.5 22.5ZM30.5 55C27.0417 55 23.7917 54.3433 20.75 53.03C17.7083 51.7167 15.0625 49.9358 12.8125 47.6875C10.5625 45.4375 8.78167 42.7917 7.47 39.75C6.15833 36.7083 5.50167 33.4583 5.5 30C5.5 26.5417 6.15667 23.2917 7.47 20.25C8.78333 17.2083 10.5642 14.5625 12.8125 12.3125C15.0625 10.0625 17.7083 8.28167 20.75 6.97C23.7917 5.65833 27.0417 5.00167 30.5 5C33.9583 5 37.2083 5.65667 40.25 6.97C43.2917 8.28333 45.9375 10.0642 48.1875 12.3125C50.4375 14.5625 52.2192 17.2083 53.5325 20.25C54.8458 23.2917 55.5017 26.5417 55.5 30C55.5 33.4583 54.8433 36.7083 53.53 39.75C52.2167 42.7917 50.4358 45.4375 48.1875 47.6875C45.9375 49.9375 43.2917 51.7192 40.25 53.0325C37.2083 54.3458 33.9583 55.0017 30.5 55Z" fill="white"/>
</svg>
