<svg width="94" height="48" viewBox="0 0 94 48" fill="none" xmlns="http://www.w3.org/2000/svg">
<g clip-path="url(#clip0_31_404)">
<path d="M2.0407 41.7701V43.3391H5.03438V44.3072H2.0407V46.9941H0.944092V40.7942H5.11916V41.7701H2.0407ZM6.32776 46.9945V40.7946H10.5943V41.7705H7.40425V43.3395H10.5005V44.3076H7.40425V46.0095H10.5943V46.9945H6.32776ZM14.1633 47.069C12.6677 47.069 11.6728 46.6972 11.6728 45.2654H12.7686C12.7686 45.8876 13.0659 46.084 14.1826 46.084C15.3818 46.084 15.5773 45.7867 15.5773 45.1089C15.5773 44.5036 15.3447 44.4204 14.879 44.3817C13.5143 44.2808 11.6728 44.6605 11.6728 42.6152C11.6728 41.1727 12.5099 40.7307 14.1452 40.7307C15.6424 40.7307 16.6089 41.1097 16.6089 42.532H15.5316C15.5316 41.7989 15.0663 41.7149 14.129 41.7149C12.8904 41.7149 12.769 41.9484 12.769 42.5951C12.769 43.1751 13.0292 43.2473 13.4681 43.2843C14.8337 43.3967 16.6826 42.9977 16.6728 45.0604C16.6637 46.4559 15.8443 47.069 14.1633 47.069ZM20.1775 41.7701V46.9941H19.0821V41.7701H17.1937V40.7942H22.0651V41.7701H20.1775ZM22.9397 46.9945V40.7946H24.0363V46.9945H22.9397ZM28.1653 46.9945H27.0848L24.7713 40.7946H25.9413L27.6448 45.6065L29.3447 40.7946H30.4985L28.1653 46.9945ZM34.7997 46.9945L34.2236 45.4141H31.8068L31.2398 46.9945H30.097L32.4961 40.7946H33.6199L35.9988 46.9945H34.7997ZM33.0245 42.0138L32.1511 44.4645H33.8869L33.0245 42.0138ZM36.7804 46.9945V40.7946H37.8762V46.0095H40.9539V46.9945H36.7804ZM48.3805 46.1578C47.9361 46.8171 47.2654 46.9941 46.1132 46.9941H43.808V40.7942H46.1049C47.2571 40.7942 47.9263 40.9799 48.373 41.6392C48.6991 42.1238 48.7815 42.6822 48.7815 43.8983C48.7812 45.1175 48.7082 45.6751 48.3805 46.1578ZM46.0493 41.7701H44.8872V46.0091H46.0588C47.3032 46.0091 47.6838 45.9436 47.6838 43.8979C47.6834 41.8533 47.2938 41.7701 46.0493 41.7701ZM50.0844 46.9945V40.7946H54.3502V41.7705H51.1609V43.3395H54.2563V44.3076H51.1609V46.0095H54.3502V46.9945H50.0844ZM61.4617 42.532C61.4617 41.9082 61.2015 41.724 60.1333 41.724C58.888 41.724 58.6924 42.1238 58.6924 43.8983C58.6924 45.6751 58.8797 46.0647 60.1242 46.0647C61.1916 46.0647 61.4519 45.8876 61.4519 45.2654H62.5315C62.5315 46.668 61.6202 47.069 60.207 47.069C57.6124 47.069 57.5946 45.6656 57.5946 43.8876C57.5946 42.1148 57.6222 40.7307 60.2153 40.7307C61.6269 40.7307 62.541 41.129 62.541 42.532H61.4617ZM67.7094 46.9945L67.1325 45.4141H64.7157L64.1474 46.9945H63.0047L65.403 40.7946H66.5268L68.9081 46.9945H67.7094ZM65.9318 42.0138L65.0591 44.4645H66.7981L65.9318 42.0138ZM73.2847 46.9945L70.7117 42.5406V46.9945H69.6896V40.7946H70.8048L73.3903 45.2106V40.7946H74.4124V46.9945H73.2847ZM79.8864 46.9945L77.3127 42.5406V46.9945H76.2898V40.7946H77.4049L79.9905 45.2106V40.7946H81.011V46.9945H79.8864ZM82.8899 46.9945V40.7946H87.1565V41.7705H83.9688V43.3395H87.0642V44.3076H83.9688V46.0095H87.1565V46.9945H82.8899ZM90.7279 47.069C89.2306 47.069 88.2357 46.6972 88.2357 45.2654H89.3316C89.3316 45.8876 89.6305 46.084 90.7456 46.084C91.9439 46.084 92.1395 45.7867 92.1395 45.1089C92.1395 44.5036 91.9069 44.4204 91.4412 44.3817C90.0764 44.2808 88.2357 44.6605 88.2357 42.6152C88.2357 41.1727 89.0721 40.7307 90.7081 40.7307C92.2069 40.7307 93.1711 41.1097 93.1711 42.532H92.0938C92.0938 41.7989 91.6293 41.7149 90.6896 41.7149C89.4526 41.7149 89.3319 41.9484 89.3319 42.5951C89.3319 43.1751 89.5922 43.2473 90.0291 43.2843C91.3954 43.3967 93.246 42.9977 93.2377 45.0604C93.2278 46.4559 92.4108 47.069 90.7279 47.069Z" fill="#24335F"/>
<path d="M47.0928 0.930908C29.6208 0.930908 15.585 8.70337 15.585 18.1194C15.585 27.5346 29.4812 35.307 47.0928 35.307C64.601 35.307 78.5963 27.5346 78.5963 18.1194C78.5963 8.70337 64.5316 0.930908 47.0928 0.930908ZM47.0597 34.4127C30.9871 34.4127 17.232 26.9699 17.232 18.1099C17.232 9.25108 31.3022 1.64739 47.0597 1.64739C63.0955 1.64739 76.8688 9.25108 76.8688 18.1099C76.8692 26.9699 63.0257 34.4127 47.0597 34.4127Z" fill="#24335F"/>
<path d="M70.8478 15.979C69.8785 16.1765 68.9779 16.4861 68.0548 16.7613C67.4609 16.9391 66.8572 17.1024 66.218 17.2112L65.957 17.2077L66.0714 17.0353C66.1605 16.9431 66.2504 16.8512 66.3426 16.7613C67.2646 15.8563 68.3099 15.076 69.2744 14.199C69.5769 13.8457 70.2405 13.576 70.0256 12.9336C69.8292 12.8311 69.2973 13.0452 69.0434 13.1584C67.168 14.1268 65.4416 15.2148 63.8561 16.7278C63.8095 16.7719 63.7638 16.8161 63.7169 16.8607C62.8174 17.5409 62.6514 19.115 61.304 19.0239C60.4495 18.945 60.3261 18.9533 59.9976 18.8374C61.3722 17.7767 64.0162 14.2688 64.252 13.4305C64.252 13.4305 64.4893 12.6714 64.1617 12.697C62.9018 13.156 61.7129 14.2227 60.7311 15.087C60.8222 14.6611 61.5126 13.8477 61.1766 13.3579C58.9953 13.8173 55.9188 16.7365 55.9038 16.7463C55.3194 17.1339 55.1033 18.3808 54.1936 18.1954C53.6246 18.117 52.9389 18.1099 52.6037 17.9174C53.1893 17.5689 53.7492 17.1789 54.2918 16.7613C55.5517 15.794 56.722 14.682 57.914 13.6115C57.9823 13.4553 58.3754 13.2996 58.1518 13.063C57.7717 12.7589 57.3261 13.2077 56.9129 13.2802C55.0237 14.1083 53.7472 15.2227 52.5004 16.7613C52.2674 17.0488 51.92 17.4198 51.7122 17.751C50.8218 17.6462 50.3466 17.6935 49.9109 17.4115C50.1771 17.1915 50.4468 16.9762 50.7177 16.7617C52.1711 15.6103 53.6534 14.475 54.7626 12.7672C54.651 12.1876 54.0678 12.6521 53.7875 12.7629C51.804 13.742 50.1739 14.9498 48.9251 16.8626C48.8478 16.9805 48.7733 17.1016 48.7015 17.2274C47.8281 17.2041 47.0734 17.0334 46.319 16.8607C46.3029 16.8567 46.2871 16.8532 46.2709 16.85L46.2776 16.7692C48.179 15.7972 49.8734 14.128 51.1842 12.1556C51.1842 12.1556 52.2721 10.2467 49.8853 11.8248C48.1041 12.9699 46.4815 14.4817 45.3443 16.632C45.3443 16.632 44.1463 16.6773 44.1463 16.5464C45.3001 15.13 46.6384 13.3023 47.3167 11.4372C47.3809 11.1466 47.5584 10.5369 47.1301 10.4723C45.5264 11.1454 44.4665 13.0314 43.6069 14.7995C43.3443 15.3185 43.2011 15.9738 42.9681 16.4683C41.8943 16.4155 41.153 16.5093 40.1231 16.2021C41.4141 15.0685 42.8249 14.1347 44.0008 12.7735C44.1999 12.4033 45.5217 11.4975 45.4886 10.3291C45.0769 10.0764 44.6629 10.3745 44.4117 10.5598L40.7887 13.447L40.5986 13.4569C41.1763 12.4238 42.4369 10.9115 42.9547 9.84372C43.1286 9.48568 43.3443 9.16036 43.3281 8.72464L43.0083 8.62093C40.3888 9.74672 38.1317 12.3145 37.2457 15.6253C37.0288 15.9316 36.9235 16.5188 36.4776 16.3437C36.4216 15.4447 36.1416 14.6071 35.8336 13.7936C34.7106 11.4455 33.099 9.73252 31.0387 8.49475C30.7027 8.30311 30.5087 8.66588 30.6195 8.94625C30.9086 10.5981 31.9295 11.6359 32.6325 12.8902C33.4685 14.1832 34.603 15.3524 35.5584 16.52C35.2323 16.6316 27.782 18.4052 26.4575 19.4782C25.7619 19.8611 24.6491 20.7506 24.6665 22.699C24.7248 23.2731 25.1262 23.8378 25.6357 24.0081C26.1176 24.0775 26.4575 24.1197 26.7745 23.9028C28.1475 22.1532 29.7394 20.5523 31.5135 19.4876C32.7307 18.8504 33.6246 18.2258 35.0225 18.0499C35.5986 18.5874 35.972 19.2948 36.7587 19.9462C38.3088 21.3571 39.6692 22.3153 41.8068 22.6651L42.0197 22.5941L41.9417 22.3977C40.8119 20.7534 39.0832 19.7159 37.3155 18.8567C37.0127 18.628 36.28 18.2412 36.2394 17.7767C37.3289 17.4111 38.7788 17.3059 40.0884 17.6201C41.6518 20.3366 43.3762 23.3177 45.8833 25.0278C46.0702 25.0712 46.2007 24.8114 46.1069 24.6414C44.3687 20.4092 43.2579 20.0275 41.4764 18.0831C41.3805 17.9391 41.2473 17.6016 41.5012 17.4892L43.1656 17.5152C43.7011 17.5894 44.4342 17.4368 44.5647 17.6722C44.6451 20.4711 46.4472 22.6103 47.5351 24.7392C47.5351 24.7392 47.8845 24.9403 47.8655 24.5748L47.877 24.5511C47.4318 19.6225 45.5856 18.4876 45.3064 17.6501C45.5907 17.6304 45.9026 17.6481 46.1353 17.7763C47.3072 20.1607 48.8979 21.9608 50.9933 23.311C51.039 23.3405 51.3001 23.3729 51.1305 22.9928C50.5213 20.945 48.6396 19.8958 47.4188 18.3524L47.2051 17.9537L47.4519 17.921C47.9748 18.0251 48.6818 18.143 49.0659 18.393C49.7622 19.7286 50.7019 20.7589 51.7035 21.714C52.5323 22.464 53.2409 23.3398 54.4937 23.5846L54.6262 23.5653L54.666 23.4577L54.6274 23.2987C53.8521 21.2711 51.7622 20.4178 50.2875 18.9884C50.1873 18.8981 50.0024 18.5294 50.2788 18.4719L52.6546 18.8169C56.2283 23.5886 57.6108 23.3981 57.6108 23.3981C57.6108 23.3981 58.683 23.6469 58.1924 22.8614C57.0272 21.6509 56.0114 21.0949 54.6187 19.9908C54.3683 19.7518 53.7421 19.3299 53.8068 18.9017C54.317 18.9805 54.4026 18.9738 55.4428 19.0913C55.7705 19.1383 56.2129 19.1954 56.4641 19.3078C58.33 20.1402 58.4933 22.751 63.0229 23.2999C63.1841 23.3141 63.2188 23.0972 63.1069 22.9553C61.8131 21.9478 58.4389 19.6852 58.2319 19.4257C58.6636 19.4648 60.4779 19.7238 60.7642 19.8575C63.0426 21.087 64.4365 22.0042 67.696 21.5732C67.9759 21.1635 67.5217 20.9979 67.1364 20.8461L65.3009 20.132C65.0631 20.0574 64.0438 19.8575 63.6778 19.7396C65.6285 19.1245 68.2019 18.4139 69.9191 17.3717C70.1912 17.1584 70.5134 16.9951 70.7795 16.7601C70.9598 16.6012 71.1128 16.406 71.207 16.1426C71.2985 15.8536 70.8478 15.979 70.8478 15.979ZM38.0513 16.3197C37.8459 16.1935 38.0091 15.9431 38.0722 15.8398C38.1333 15.7641 38.8332 14.505 39.4519 14.8287C39.5615 15.1402 38.4894 16.3895 38.0513 16.3197ZM59.5426 16.7652C59.1991 17.3291 59.4456 18.1347 58.9961 18.6607L55.9523 18.2688C57.7192 17.6394 59.155 16.4328 60.0035 15.9415L59.5426 16.7652ZM62.8261 19.1107C62.8009 18.7826 63.179 18.4912 63.4148 18.268C64.4385 17.4301 64.5923 18.2447 64.5923 18.2447C64.1266 18.6115 63.4669 19.0436 62.8261 19.1107Z" fill="#24335F"/>
</g>
<defs>
<clipPath id="clip0_31_404">
<rect width="92.2936" height="46.1383" fill="white" transform="translate(0.944092 0.930908)"/>
</clipPath>
</defs>
</svg>
