<svg width="61" height="60" viewBox="0 0 61 60" fill="none" xmlns="http://www.w3.org/2000/svg">
<g clip-path="url(#clip0_31_209)">
<path d="M30.5 13.125C29.2021 13.125 27.9333 12.7401 26.8541 12.019C25.7749 11.2979 24.9337 10.273 24.437 9.07386C23.9403 7.87472 23.8104 6.55522 24.0636 5.28222C24.3168 4.00922 24.9418 2.83989 25.8596 1.92211C26.7774 1.00433 27.9467 0.379311 29.2197 0.126096C30.4927 -0.12712 31.8122 0.00283966 33.0114 0.49954C34.2105 0.99624 35.2354 1.83737 35.9565 2.91657C36.6776 3.99577 37.0625 5.26456 37.0625 6.5625C37.0606 8.30241 36.3686 9.97053 35.1383 11.2008C33.908 12.4311 32.2399 13.1231 30.5 13.125Z" fill="white"/>
<path d="M51.125 13.2187L51.0723 13.2328L51.0231 13.248C50.9059 13.2809 50.7887 13.316 50.6715 13.3523C48.4907 13.9922 37.9063 16.9758 30.4497 16.9758C23.5204 16.9758 13.8934 14.3977 10.8137 13.5223C10.5072 13.4038 10.1942 13.3028 9.87622 13.2199C7.64966 12.634 6.12622 14.8957 6.12622 16.9629C6.12622 19.0102 7.96606 19.9852 9.82349 20.6848V20.7176L20.9821 24.2027C22.1223 24.6398 22.427 25.0863 22.5758 25.473C23.0598 26.7141 22.6731 29.1715 22.536 30.0293L21.8563 35.3027L18.084 55.95C18.0723 56.0062 18.0618 56.0637 18.0524 56.1223L18.0254 56.2711C17.7536 58.1637 19.1434 60 21.7754 60C24.0723 60 25.086 58.4145 25.5254 56.257C25.9649 54.0996 28.8067 37.7918 30.4473 37.7918C32.0879 37.7918 35.4676 56.257 35.4676 56.257C35.9071 58.4145 36.9208 60 39.2176 60C41.8567 60 43.2465 58.1555 42.9676 56.257C42.9437 56.0974 42.914 55.9387 42.8786 55.7812L39.0547 35.3051L38.3762 30.0316C37.8852 26.9602 38.2801 25.9453 38.4137 25.7074C38.4173 25.7018 38.4204 25.6959 38.4231 25.6898C38.5497 25.4555 39.1262 24.9305 40.4715 24.4254L50.934 20.768C50.9983 20.7509 51.0617 20.7305 51.1239 20.707C52.9989 20.0039 54.8739 19.0312 54.8739 16.9652C54.8739 14.8992 53.3516 12.634 51.125 13.2187Z" fill="white"/>
</g>
<defs>
<clipPath id="clip0_31_209">
<rect width="60" height="60" fill="white" transform="translate(0.5)"/>
</clipPath>
</defs>
</svg>
