<svg width="133" height="40" viewBox="0 0 133 40" fill="none" xmlns="http://www.w3.org/2000/svg">
<path d="M12.2259 13.0018C10.7686 13.1524 9.13728 13.6024 7.86918 14.2412C5.02181 15.6751 2.83371 17.7419 1.38958 20.585C0.752074 21.8412 0.12742 23.8042 0.0492965 25.274C0.0403964 25.4392 0.00710322 25.4847 0.00743285 25.6185C0.00776249 26.6651 -0.036408 27.0115 0.0868748 28.0357C0.3519 30.2413 1.28015 32.5889 2.61714 34.3277C3.34134 35.2702 4.02434 36.0603 4.9605 36.8059C6.56713 38.0849 8.1352 39.0006 10.1855 39.5429C11.8894 39.9932 12.7049 39.9941 14.4259 39.9941C15.0934 39.9941 16.5876 39.6905 17.1892 39.53C18.0308 39.3059 18.8334 38.9977 19.5336 38.6456C20.2687 38.2761 20.8798 37.9264 21.5621 37.4451C22.4709 36.8043 22.9571 36.2999 23.6909 35.5718C23.8303 35.4337 23.9441 35.287 24.0776 35.1406C25.669 33.3866 26.7318 30.976 27.1643 28.6294L27.338 27.2113C27.338 26.1314 27.3779 25.9841 27.2559 24.9263C27.0344 23.0081 26.3478 21.1385 25.3645 19.543C24.7042 18.4711 24.0855 17.7386 23.2172 16.8704C22.1957 15.8485 20.8208 14.8735 19.4106 14.2185C18.6419 13.8615 17.891 13.5681 17.0478 13.3558C15.8743 13.0605 14.8577 12.9171 13.7614 12.9171C13.2722 12.9171 12.7675 12.9458 12.2259 13.0018ZM9.03872 37.7648C7.57581 37.1616 5.59669 35.8286 4.56164 34.5773C4.42814 34.4161 4.32925 34.3165 4.20729 34.159C3.07071 32.6971 2.36299 31.4972 1.83756 29.641C1.71757 29.2188 1.63318 28.8456 1.55407 28.3746C1.45716 27.7918 1.4743 27.4569 1.41398 27.0079C1.21257 25.5068 1.76965 23.201 2.34091 21.8412C2.77998 20.7973 3.63669 19.3604 4.40836 18.5278C6.45736 16.3169 8.70645 14.8847 11.7516 14.3793L13.1087 14.2303C13.6971 14.1054 15.4402 14.3421 15.9574 14.4463C17.5047 14.7574 19.0358 15.3732 20.2914 16.2233C21.3021 16.907 21.9392 17.4519 22.7656 18.3524C24.0367 19.7375 24.9768 21.4523 25.4986 23.284C25.7053 24.0092 25.9215 25.0479 25.9169 25.9201C25.9146 26.3974 25.9601 26.9305 25.9113 27.3768C25.8622 27.8214 25.8091 28.2701 25.7162 28.7299C25.5421 29.583 25.3206 30.354 24.9996 31.071C24.5288 32.1235 23.7298 33.5554 22.9374 34.3874C21.721 35.6644 20.7859 36.5439 19.0751 37.4118C17.3606 38.282 15.5397 38.7096 13.7139 38.7096C12.1383 38.7099 10.559 38.3915 9.03872 37.7648Z" fill="#24335F"/>
<path d="M100.161 13.2658V39.6496H101.496L101.49 27.0391H104.853C104.985 27.0708 108.745 33.1021 108.907 33.3575C109.711 34.6227 110.593 36.0826 111.407 37.3135L112.411 38.8931C113.037 39.8638 112.603 39.6496 114.382 39.6496C114.338 39.4607 113.567 38.3136 113.397 38.0364C112.485 36.5504 106.515 27.2405 106.403 26.9528C106.933 26.9511 107.708 26.7369 108.133 26.6166C109.604 26.1992 110.841 25.2951 111.637 24.0523C112.746 22.3188 113.049 19.6999 112.239 17.4135C111.879 16.3953 111.286 15.6276 110.588 14.9759C109.884 14.317 108.887 13.8423 107.936 13.5825C106.899 13.299 104.936 13.2447 103.119 13.2447C101.991 13.2447 100.919 13.2658 100.161 13.2658ZM101.496 14.5576H105.671C106.229 14.5576 107.583 14.791 108.109 15.0026C108.873 15.3108 109.325 15.6078 109.856 16.1392C111.452 17.7346 111.794 20.7207 110.85 22.7503C110.205 24.1397 109.239 24.9354 107.769 25.3906C107.306 25.5337 106.454 25.6946 105.931 25.7054C105.716 25.7097 105.421 25.7473 105.284 25.7476H101.496V14.5576Z" fill="#24335F"/>
<path d="M59.9583 13.0038C57.2408 13.3202 55.0603 14.3378 53.0166 15.9613C52.1305 16.666 51.2514 17.6081 50.6116 18.5077C49.8857 19.5279 49.3567 20.4901 48.8827 21.7272C48.6532 22.3251 48.4637 22.9791 48.3325 23.6295C48.2616 23.9829 48.2089 24.3181 48.1558 24.7011L48.0398 25.8341L48.1838 28.4464C48.2508 28.9379 48.3503 29.3928 48.4574 29.8068C48.6799 30.6668 48.9466 31.4065 49.3036 32.1865C49.9645 33.6309 50.906 34.9194 51.9674 35.9805C54.3094 38.3229 56.8357 39.4796 60.1215 39.921C60.2359 39.9368 60.3025 39.9473 60.4792 39.9513C60.6661 39.9552 60.7234 39.9941 60.8662 39.9941H62.3726C62.5226 39.9941 62.7378 39.9582 62.9333 39.9513C63.8694 39.9187 65.7915 39.4806 66.6331 39.2169C67.2478 39.0244 67.858 38.7788 68.4316 38.5197C68.6817 38.4066 68.7035 38.2039 68.8776 37.7187C68.9547 37.5044 69.1986 36.9793 69.2161 36.766C68.5047 37.1398 66.8058 37.7751 66.0819 37.9778C65.1323 38.2438 64.4348 38.4112 63.429 38.5527C62.4243 38.6941 61.0821 38.7175 60.1212 38.5866C57.105 38.1762 54.2448 36.769 52.3201 34.422C51.8945 33.9022 51.7745 33.7634 51.3582 33.148C48.6134 29.0905 48.7469 23.32 51.5985 19.4076C53.6897 16.5384 56.4843 14.8243 60.0309 14.3263C60.1927 14.3032 60.5131 14.2636 60.6931 14.2561C60.7541 14.2534 60.8174 14.2551 60.881 14.2564C60.9486 14.258 61.0161 14.2594 61.0817 14.2557C61.326 14.2422 61.2706 14.2132 61.684 14.2132C62.0044 14.2132 62.7325 14.2808 63.0351 14.3263C65.3122 14.6661 67.9938 15.6544 69.8559 17.0151C69.9993 17.1193 70.1381 17.2254 70.292 17.3124L69.9512 16.4465C69.8289 16.135 69.7115 15.8765 69.5853 15.565C69.522 15.4108 69.487 15.2654 69.3717 15.1751C69.1884 15.0323 68.396 14.6388 68.1685 14.5287C66.0895 13.5213 63.8945 12.9115 61.5455 12.9115C61.024 12.9115 60.4956 12.9415 59.9583 13.0038Z" fill="#24335F"/>
<path d="M84.4088 10.2964C84.3953 10.4563 82.9225 13.7395 82.8134 13.9949C82.5543 14.5975 82.256 15.2162 81.9946 15.8425L80.3761 19.5189C79.7382 21.0135 78.9709 22.6178 78.3607 24.0886L72.3205 37.805C72.2424 37.98 71.5343 39.469 71.566 39.6255L72.7451 39.6348C72.9086 39.6348 72.9524 39.4185 73.0002 39.3002L76.8434 30.5758C76.967 30.2785 77.0804 30.0622 77.2007 29.7738L83.3853 15.7268C83.4848 15.4865 84.365 13.4072 84.4948 13.3093L86.6467 18.2587C86.8877 18.7654 87.1533 19.3798 87.3758 19.8973C88.314 22.0848 89.3217 24.2969 90.2647 26.4771L95.6849 38.7886C95.7815 38.993 95.9776 39.3836 96.0297 39.6071H97.3644C97.306 39.3546 94.8621 33.9031 94.5503 33.1677C93.6494 31.0442 92.6328 28.8897 91.7362 26.7698L90.1177 23.0964C89.6114 21.9641 89.0273 20.5398 88.5127 19.449C88.3578 19.121 88.2504 18.8488 88.1083 18.5195L84.8832 11.1996C84.8192 11.051 84.75 10.9036 84.6837 10.7513C84.6165 10.5957 84.5255 10.4256 84.4955 10.2964H84.4088Z" fill="#24335F"/>
<path d="M119.693 14.5907C119.246 14.972 118.704 15.7005 118.412 16.28C118.248 16.6041 118.106 16.9584 118.001 17.3309C117.676 18.4757 117.634 19.8533 118.064 20.973C118.373 21.7833 118.709 22.2939 119.26 22.9208C119.988 23.7518 120.953 24.4025 121.914 24.9563C122.265 25.159 122.593 25.3209 122.93 25.4893C124.551 26.2999 126.535 27.2011 127.988 28.2655C129.127 29.0998 130.274 30.2604 130.557 31.9369C130.869 33.7868 129.964 35.6506 129.052 36.5614C127.896 37.7164 126.596 38.403 124.871 38.6219C121.679 39.027 119.121 37.5641 117.537 35.1858C117.398 34.9768 117.035 34.363 116.904 34.2691C116.38 35.7468 116.216 35.5154 116.554 36.0419C116.663 36.209 116.778 36.3682 116.889 36.5244C117.433 37.2902 118.274 38.0803 119.048 38.581C119.563 38.9153 120.117 39.1991 120.707 39.4206C121.45 39.6998 121.957 39.8162 122.749 39.9187C123.789 40.0535 123.776 39.9879 124.694 39.9503L125.886 39.7651C128.131 39.2706 130.137 37.963 131.224 35.9341C132.012 34.4616 132.293 32.5501 131.727 30.895C129.785 25.2121 121.322 25.0661 119.424 20.7759C119.107 20.0599 119.1 19.64 119.1 18.9039C119.1 18.2357 119.324 17.4832 119.557 16.9927C120.677 14.6329 123.233 13.8503 125.667 14.3602C126.902 14.6184 128.231 15.3192 129.198 16.0793C129.387 16.2276 130.208 16.9231 130.376 16.9676C130.259 16.7224 130.146 16.3647 130.047 16.0902L129.553 14.8204L129.256 14.559C128.569 14.0366 127.81 13.6268 126.95 13.3348C125.744 12.926 125.157 12.9214 123.963 12.9214C122.36 12.9214 120.829 13.6209 119.693 14.5907Z" fill="#24335F"/>
<path d="M35.1402 13.15C32.965 13.6649 31.2673 15.3441 30.6786 17.5536C30.403 18.587 30.4047 19.741 30.732 20.7609C31.4651 23.0446 33.6011 24.5079 35.6798 25.4994C37.8653 26.5414 41.1204 28.0247 42.4732 29.9821C43.6596 31.6985 43.5973 33.6034 42.6331 35.4026C41.633 37.2712 39.4449 38.4995 37.3642 38.657C36.2547 38.7411 35.2549 38.6557 34.1945 38.304C33.2854 38.0024 32.2111 37.3642 31.5452 36.6904C31.0537 36.193 29.8397 34.772 29.7055 34.2693H29.6192C29.6014 34.4756 29.2599 35.2559 29.1633 35.4939C29.0555 35.7602 29.1936 35.8776 29.3186 36.076C30.6905 38.2532 32.8628 39.5352 35.424 39.9139C36.1195 40.0164 36.2725 39.994 36.9364 39.994C37.0834 39.994 37.182 39.9548 37.3659 39.9512C38.1178 39.937 39.3532 39.6116 39.9974 39.3529C41.6857 38.6735 43.0854 37.5359 43.9536 35.9491C44.1791 35.5364 44.3548 35.1448 44.4991 34.6477C44.7273 33.8671 44.7694 33.2886 44.7694 32.5051C44.7694 32.2486 44.6722 31.7288 44.6228 31.4892C44.2242 29.5684 42.8352 28.0613 41.2832 26.9959C40.1183 26.1959 39.5718 25.9853 38.3937 25.3649C35.5002 23.841 31.4902 22.5604 31.8633 18.5224C32.0265 16.7588 33.23 15.2811 34.716 14.6614C35.6798 14.2596 36.2455 14.2131 37.237 14.2131C40.2037 14.2131 42.7729 16.8508 43.091 16.9678L42.4581 15.2333C42.2741 14.7652 42.3644 14.846 41.9784 14.5506C41.2635 14.0038 40.5396 13.6267 39.6641 13.3353C39.3589 13.2341 39.0938 13.15 38.755 13.0824C38.1531 12.9631 37.6131 12.9028 37.0781 12.9028C36.4551 12.9028 35.839 12.9845 35.1402 13.15Z" fill="#24335F"/>
<path d="M83.9785 25.8771C83.9782 26.6062 82.687 26.2696 82.687 27.2114C82.687 28.0632 82.6863 27.9643 82.9227 28.9143C83.0206 29.3095 83.0816 29.6296 83.5051 29.6649C83.5051 29.9553 83.3759 30.2678 83.3759 30.5687C83.3759 31.1594 83.3509 31.4584 83.488 32.0491C83.5282 32.2238 83.6772 32.7054 83.6772 32.8495C83.6772 33.1778 83.634 33.2625 83.634 33.3231V34.1406C83.634 34.5774 83.8925 35.1697 83.8925 36.3357C83.8925 37.2886 82.6781 36.4698 82.3428 37.3634L81.1812 37.3687L81.1028 37.5042C81.0754 37.5619 81.0645 37.5935 81.0378 37.6558C80.9033 37.9677 80.2322 39.4441 80.2493 39.6293C81.8428 39.6666 83.61 39.6551 85.356 39.6438C86.4817 39.6366 87.5992 39.6293 88.6553 39.6349C88.6662 39.4533 88.3118 38.7041 88.2106 38.4733C88.1207 38.2683 87.7983 37.3981 87.6799 37.3687H86.6043C86.2843 37.0483 86.4412 36.9217 85.7872 36.8937C85.3798 36.8766 85.0119 36.8044 85.0119 36.3785C85.0119 35.4931 84.9878 35.8633 85.1388 34.9575C85.3049 33.96 85.2703 34.4228 85.2703 33.4092C85.2703 33.2895 85.2271 33.2533 85.2271 33.1507C85.2271 32.3903 85.5284 31.8813 85.5284 31.3862C85.5284 30.9518 85.5376 30.0858 85.3728 29.7245C85.51 29.6072 85.6988 29.5989 85.8103 29.4292C85.894 29.3019 85.9434 29.0396 85.985 28.8728C86.2019 28.0038 86.217 28.022 86.217 27.2114C86.2167 26.2746 84.9252 26.6144 84.9262 25.8771C84.9262 25.8441 85.5627 24.1979 84.4522 24.1979C83.342 24.1986 83.9785 25.8741 83.9785 25.8771Z" fill="#24335F"/>
<path d="M69.9908 0.0095911L69.9902 2.0754H67.4055L67.4081 0.0095911H66.8916V5.08858H67.4081V2.5926H69.9908L69.9902 5.08858C70.3851 5.08858 70.5502 5.1433 70.5502 4.95936V0.0095911H69.9908Z" fill="#24335F"/>
<path d="M74.8151 0.00214005C74.8 0.00312853 74.7858 0.00444603 74.7733 0.00411654L72.2285 0.00939274V5.08838H74.5099C74.6685 5.08838 74.7561 4.71853 74.7683 4.57118H72.7451V2.5924H74.6385L74.6292 2.10092L72.7451 2.08806L72.7477 0.500546L75.1128 0.482745C75.0762 0.0496073 74.9572 -0.0001688 74.858 -0.0001688C74.8432 -0.0001688 74.8287 0.000821114 74.8151 0.00214005Z" fill="#24335F"/>
<path d="M62.5871 0.00939369C62.5597 0.127073 62.4599 0.389459 62.415 0.483405H63.6205V5.08838L64.1657 5.0775C64.2106 4.66876 64.1806 1.18453 64.1802 0.483405H65.385V0.00939369H62.5871Z" fill="#24335F"/>
</svg>
