<svg width="60" height="60" viewBox="0 0 60 60" fill="none" xmlns="http://www.w3.org/2000/svg">
<path fill-rule="evenodd" clip-rule="evenodd" d="M32.3874 2.23251C32.074 1.91881 31.7018 1.66995 31.2921 1.50016C30.8825 1.33037 30.4433 1.24298 29.9999 1.24298C29.5564 1.24298 29.1173 1.33037 28.7077 1.50016C28.298 1.66995 27.9258 1.91881 27.6124 2.23251L2.23489 27.6125C1.92119 27.9259 1.67233 28.2981 1.50254 28.7078C1.33275 29.1175 1.24536 29.5566 1.24536 30C1.24536 30.4435 1.33275 30.8826 1.50254 31.2922C1.67233 31.7019 1.92119 32.0741 2.23489 32.3875L27.6124 57.7625C27.9258 58.0762 28.298 58.3251 28.7077 58.4949C29.1173 58.6646 29.5564 58.752 29.9999 58.752C30.4433 58.752 30.8825 58.6646 31.2921 58.4949C31.7018 58.3251 32.074 58.0762 32.3874 57.7625L57.7649 32.3875C58.0786 32.0741 58.3274 31.7019 58.4972 31.2922C58.667 30.8826 58.7544 30.4435 58.7544 30C58.7544 29.5566 58.667 29.1175 58.4972 28.7078C58.3274 28.2981 58.0786 27.9259 57.7649 27.6125L32.3874 2.23251ZM31.3249 16.175C31.1487 15.9986 30.939 15.8591 30.7083 15.7647C30.4775 15.6703 30.2302 15.6229 29.9809 15.6252C29.7316 15.6276 29.4852 15.6796 29.2562 15.7783C29.0273 15.877 28.8203 16.0204 28.6474 16.2L18.6474 26.6175C18.4767 26.7951 18.3426 27.0046 18.2529 27.234C18.1631 27.4635 18.1194 27.7083 18.1243 27.9546C18.1292 28.2009 18.1825 28.4439 18.2813 28.6696C18.38 28.8953 18.5223 29.0993 18.6999 29.27C18.8775 29.4407 19.087 29.5748 19.3164 29.6645C19.5459 29.7543 19.7907 29.798 20.037 29.7931C20.2833 29.7882 20.5263 29.7349 20.7519 29.6361C20.9776 29.5374 21.1817 29.3951 21.3524 29.2175L28.1249 22.16V40C28.1249 40.4973 28.3224 40.9742 28.6741 41.3258C29.0257 41.6775 29.5026 41.875 29.9999 41.875C30.4972 41.875 30.9741 41.6775 31.3257 41.3258C31.6773 40.9742 31.8749 40.4973 31.8749 40V22.025L38.6749 28.825C38.8465 29.0092 39.0535 29.157 39.2835 29.2595C39.5135 29.3619 39.7618 29.417 40.0136 29.4215C40.2653 29.4259 40.5154 29.3796 40.7489 29.2853C40.9824 29.191 41.1944 29.0507 41.3725 28.8726C41.5505 28.6946 41.6909 28.4825 41.7852 28.249C41.8795 28.0155 41.9258 27.7655 41.9214 27.5137C41.9169 27.2619 41.8618 27.0137 41.7593 26.7837C41.6569 26.5537 41.5091 26.3467 41.3249 26.175L31.3249 16.175Z" fill="white"/>
</svg>
