<svg width="61" height="60" viewBox="0 0 61 60" fill="none" xmlns="http://www.w3.org/2000/svg">
<path d="M50.5 20L35.5 5H15.5C14.1739 5 12.9021 5.52678 11.9645 6.46447C11.0268 7.40215 10.5 8.67392 10.5 10V50C10.5 51.3261 11.0268 52.5979 11.9645 53.5355C12.9021 54.4732 14.1739 55 15.5 55H45.5C46.8261 55 48.0979 54.4732 49.0355 53.5355C49.9732 52.5979 50.5 51.3261 50.5 50V20ZM23 47.5H18V25H23V47.5ZM33 47.5H28V32.5H33V47.5ZM43 47.5H38V40H43V47.5ZM35.5 22.5H33V10L45.5 22.5H35.5Z" fill="white"/>
</svg>
