<svg width="119" height="50" viewBox="0 0 119 50" fill="none" xmlns="http://www.w3.org/2000/svg">
<path fill-rule="evenodd" clip-rule="evenodd" d="M10.1913 0.0431545C10.8732 -0.136048 11.6407 0.259238 11.8884 0.918071C12.1138 1.47281 11.9589 2.1593 11.5024 2.55064C11.059 2.95451 10.3586 3.03094 9.83684 2.73842C9.32559 2.46698 9.01263 1.87074 9.08774 1.29558C9.1444 0.700655 9.60888 0.174262 10.1913 0.0431545Z" fill="#24335F"/>
<path fill-rule="evenodd" clip-rule="evenodd" d="M108.566 0.0435846C109.091 -0.0750053 109.671 0.123955 110.008 0.546267C110.397 1.00943 110.44 1.72033 110.119 2.23224C109.817 2.73823 109.188 3.01425 108.61 2.90028C107.931 2.78893 107.396 2.13866 107.424 1.44952C107.412 0.788056 107.919 0.172716 108.566 0.0435846Z" fill="#24335F"/>
<path fill-rule="evenodd" clip-rule="evenodd" d="M14.2173 0.769043C14.5375 0.677464 14.8847 0.958107 14.8564 1.29148C14.8392 1.61892 14.5131 1.77374 14.2957 1.96414C12.2915 3.62835 10.6267 5.67667 9.28329 7.90287C6.41605 12.6985 4.97848 18.2755 4.79401 23.8394C4.61415 29.6654 5.80993 35.5791 8.53091 40.7536C10.0482 43.6189 12.0669 46.2502 14.608 48.2814C14.8135 48.4277 14.9328 48.709 14.8037 48.9455C14.6765 49.2427 14.2555 49.329 14.015 49.1155C11.8073 47.3703 9.97836 45.1777 8.51378 42.7821C5.63468 38.0517 4.12528 32.5597 3.81234 27.0505C3.50071 21.2996 4.49687 15.4459 6.91479 10.2042C8.55726 6.6511 10.8928 3.36945 13.9623 0.910686C14.0407 0.853367 14.1211 0.793419 14.2173 0.769043Z" fill="#24335F"/>
<path fill-rule="evenodd" clip-rule="evenodd" d="M104.782 0.848392C104.982 0.706741 105.262 0.751556 105.44 0.910992C107.396 2.47506 109.064 4.38303 110.433 6.47746C113.51 11.2046 115.161 16.7763 115.563 22.3804C115.991 28.5352 114.918 34.8369 112.21 40.3988C110.718 43.4406 108.714 46.2611 106.154 48.4972C105.874 48.7271 105.612 48.9841 105.306 49.1804C104.98 49.3827 104.521 49.0855 104.556 48.708C104.573 48.4023 104.866 48.2462 105.072 48.0696C106.947 46.5246 108.526 44.6391 109.823 42.5894C111.378 40.1293 112.527 37.4235 113.319 34.6268C115.047 28.4845 115.076 21.8717 113.411 15.7123C112.673 12.9999 111.602 10.3705 110.156 7.95588C108.818 5.7277 107.158 3.67612 105.159 2.00598C104.999 1.87026 104.82 1.75694 104.677 1.60277C104.48 1.38535 104.532 1.00322 104.782 0.848392Z" fill="#24335F"/>
<path fill-rule="evenodd" clip-rule="evenodd" d="M6.71661 3.98871C7.23512 3.80292 7.8564 3.93668 8.23984 4.33659C8.66018 4.74705 8.77679 5.423 8.53566 5.95665C8.30902 6.48306 7.74506 6.84146 7.17122 6.81774C6.4913 6.8184 5.86607 6.27552 5.7679 5.60417C5.64075 4.92821 6.06437 4.20547 6.71661 3.98871Z" fill="#24335F"/>
<path fill-rule="evenodd" clip-rule="evenodd" d="M111.71 4.00046C112.259 3.7982 112.922 3.96226 113.303 4.40895C113.735 4.88595 113.783 5.65416 113.418 6.18188C113.088 6.69511 112.414 6.94283 111.829 6.77747C111.216 6.6233 110.746 6.02902 110.753 5.39456C110.729 4.78712 111.137 4.19943 111.71 4.00046Z" fill="#24335F"/>
<path fill-rule="evenodd" clip-rule="evenodd" d="M12.204 5.04597C13.0302 4.70733 14.0494 5.31083 14.1509 6.19564C14.3083 7.035 13.5823 7.88884 12.7291 7.86775C11.8654 7.9119 11.1143 7.05279 11.2698 6.20224C11.3377 5.68374 11.7138 5.22385 12.204 5.04597Z" fill="#24335F"/>
<path fill-rule="evenodd" clip-rule="evenodd" d="M106.229 5.04186C106.725 4.86792 107.309 4.99112 107.692 5.35085C108.055 5.68356 108.228 6.20865 108.133 6.69158C108.053 7.14222 107.743 7.54347 107.328 7.73651C106.858 7.96447 106.266 7.9111 105.845 7.60079C105.405 7.29048 105.172 6.72189 105.262 6.19153C105.338 5.66842 105.726 5.20656 106.229 5.04186Z" fill="#24335F"/>
<path fill-rule="evenodd" clip-rule="evenodd" d="M4.38822 8.49054C5.12809 8.27511 5.97535 8.74617 6.16905 9.49395C6.3219 10.0177 6.15588 10.6172 5.74608 10.9796C5.30071 11.3927 4.59048 11.4737 4.06342 11.1727C3.55348 10.9032 3.25042 10.3069 3.32025 9.73769C3.37625 9.15331 3.82096 8.63615 4.38822 8.49054Z" fill="#24335F"/>
<path fill-rule="evenodd" clip-rule="evenodd" d="M114.282 8.49412C115.073 8.26419 115.965 8.84394 116.08 9.65891C116.181 10.211 115.926 10.8086 115.456 11.1169C115 11.4266 114.365 11.4443 113.894 11.1551C113.437 10.8896 113.155 10.3573 113.191 9.83022C113.208 9.20894 113.677 8.63709 114.282 8.49412Z" fill="#24335F"/>
<path fill-rule="evenodd" clip-rule="evenodd" d="M9.93044 8.64435C10.6433 8.48096 11.424 8.9428 11.619 9.64907C11.7745 10.1676 11.6236 10.7671 11.2211 11.1334C10.777 11.5636 10.051 11.6513 9.51471 11.3456C8.9804 11.0583 8.67338 10.4127 8.78999 9.81642C8.88025 9.23928 9.35791 8.75372 9.93044 8.64435Z" fill="#24335F"/>
<path fill-rule="evenodd" clip-rule="evenodd" d="M108.805 8.67255C109.274 8.54803 109.805 8.66266 110.164 8.99537C110.528 9.3182 110.708 9.82945 110.627 10.3091C110.555 10.7821 110.234 11.2084 109.796 11.4028C109.288 11.6432 108.643 11.551 108.226 11.1728C107.886 10.8796 107.7 10.4244 107.737 9.97703C107.766 9.37222 108.22 8.82277 108.805 8.67255Z" fill="#24335F"/>
<path fill-rule="evenodd" clip-rule="evenodd" d="M44.2252 12.1861C44.7226 12.1018 45.2906 12.1868 45.6555 12.5623C46.0983 13.0209 46.1938 13.7054 46.1227 14.3148C46.0627 14.8544 45.7676 15.4058 45.2464 15.6186C44.6139 15.8723 43.7726 15.7675 43.3516 15.1884C42.9616 14.6469 42.9286 13.9175 43.0841 13.2877C43.2172 12.7442 43.6553 12.2665 44.2252 12.1861ZM44.3932 12.9174C44.1073 13.011 44.0144 13.3371 43.9801 13.6046C43.9465 13.9808 43.9314 14.3912 44.1132 14.7371C44.2766 15.058 44.7958 15.0817 44.9974 14.7879C45.1529 14.5612 45.1713 14.276 45.1832 14.0104C45.1812 13.7094 45.1673 13.3905 45.0099 13.1256C44.8893 12.9141 44.6146 12.8469 44.3932 12.9174Z" fill="#24335F"/>
<path fill-rule="evenodd" clip-rule="evenodd" d="M53.9674 12.6634C54.4148 12.1225 55.2278 12.0455 55.8556 12.2721C56.2661 12.421 56.4901 12.8374 56.5738 13.2432C56.2786 13.2979 55.9828 13.3493 55.6883 13.4014C55.6191 13.2413 55.5644 13.0515 55.3945 12.9711C55.1408 12.8361 54.8008 12.9487 54.6816 13.2109C54.4951 13.6221 54.5195 14.1036 54.6223 14.5332C54.6829 14.806 54.9497 15.0286 55.237 14.9575C55.4966 14.9213 55.6231 14.6696 55.7074 14.4495C56.0098 14.5187 56.3129 14.5866 56.6159 14.6577C56.4894 15.0669 56.2437 15.4793 55.8227 15.6354C55.3833 15.7837 54.8779 15.8002 54.4457 15.617C53.972 15.4108 53.6993 14.9127 53.6248 14.4192C53.5359 13.8243 53.5695 13.1483 53.9674 12.6634Z" fill="#24335F"/>
<path fill-rule="evenodd" clip-rule="evenodd" d="M65.5502 12.4818C65.9627 12.1261 66.5629 12.0984 67.0708 12.2229C67.4595 12.3132 67.7461 12.632 67.8864 12.9937C67.6275 13.0774 67.3752 13.1789 67.1169 13.2606C66.9687 13.0655 66.7849 12.8382 66.5075 12.883C66.2664 12.8573 66.0621 13.1848 66.2901 13.3442C66.7005 13.59 67.2342 13.559 67.619 13.866C67.9655 14.1177 68.0255 14.6046 67.9088 14.9913C67.7843 15.3906 67.389 15.6383 66.9931 15.7055C66.5451 15.7786 66.0443 15.772 65.651 15.5177C65.3908 15.3517 65.2458 15.0664 65.1431 14.7858C65.4356 14.6949 65.7294 14.6072 66.0233 14.5196C66.0977 14.9327 66.5918 15.129 66.9443 14.9241C67.1136 14.8273 67.1051 14.5611 66.9357 14.4702C66.5339 14.2469 66.0364 14.2541 65.6543 13.984C65.1569 13.6684 65.1016 12.8626 65.5502 12.4818Z" fill="#24335F"/>
<path fill-rule="evenodd" clip-rule="evenodd" d="M73.9663 12.1999C74.7872 12.1999 75.6094 12.1986 76.4317 12.2019C76.4317 12.4628 76.4317 12.723 76.4317 12.9846C75.9257 12.9898 75.421 12.976 74.917 12.9925C74.9196 13.171 74.9216 13.3502 74.9236 13.5281C75.2813 13.5281 75.6398 13.5275 75.9982 13.5294C75.9988 13.7804 75.9982 14.0328 75.9955 14.2844C75.6378 14.2825 75.2794 14.2825 74.9216 14.2838C74.921 14.4946 74.921 14.7055 74.9223 14.9169C75.4355 14.9183 75.9481 14.9163 76.462 14.9183C76.4607 15.1772 76.4607 15.4374 76.4633 15.6983C75.6312 15.7069 74.7984 15.6996 73.9663 15.7023C73.9657 14.5348 73.9657 13.3674 73.9663 12.1999Z" fill="#24335F"/>
<path fill-rule="evenodd" clip-rule="evenodd" d="M77.0721 12.6635C77.5207 12.1219 78.335 12.0455 78.9642 12.2741C79.3727 12.4236 79.5947 12.838 79.6784 13.2432C79.3832 13.2979 79.0881 13.3493 78.7929 13.4C78.7244 13.2399 78.6671 13.0475 78.4951 12.9685C78.2211 12.8255 77.864 12.9744 77.7612 13.263C77.6083 13.6655 77.6255 14.1195 77.7263 14.5326C77.7869 14.804 78.0517 15.0267 78.3383 14.9588C78.5992 14.9226 78.7284 14.6703 78.8127 14.4495C79.1144 14.5187 79.4175 14.5866 79.7199 14.6577C79.5941 15.0662 79.349 15.4786 78.9286 15.6354C78.5077 15.7797 78.0287 15.7956 77.6083 15.6414C77.1017 15.4503 76.8032 14.9305 76.7288 14.4153C76.6405 13.821 76.6761 13.147 77.0721 12.6635Z" fill="#24335F"/>
<path fill-rule="evenodd" clip-rule="evenodd" d="M79.843 12.2002C80.7516 12.2002 81.6608 12.1996 82.57 12.2002C82.57 12.4625 82.57 12.7234 82.5693 12.9856C82.2728 12.9849 81.977 12.9836 81.6818 12.9895C81.6878 13.8928 81.6818 14.7967 81.6858 15.6999C81.3663 15.7032 81.0474 15.7026 80.7285 15.7026C80.7272 14.7967 80.7285 13.8915 80.7279 12.9862C80.432 12.9856 80.1375 12.9856 79.843 12.9856C79.8411 12.7234 79.8411 12.4625 79.843 12.2002Z" fill="#24335F"/>
<path fill-rule="evenodd" clip-rule="evenodd" d="M85.3805 12.2071C85.8971 12.0924 86.5039 12.1577 86.8959 12.5444C87.3373 12.9819 87.446 13.6473 87.3893 14.2442C87.3445 14.7752 87.0869 15.3313 86.5908 15.5783C85.9583 15.8801 85.0808 15.7951 84.6315 15.2166C84.2355 14.6981 84.1927 13.9899 84.3218 13.3712C84.4338 12.833 84.8238 12.3277 85.3805 12.2071ZM85.623 12.9278C85.3272 13.051 85.2567 13.4088 85.2297 13.6934C85.2079 14.0373 85.2033 14.4056 85.3634 14.7205C85.5202 15.0605 86.0677 15.0875 86.2654 14.7739C86.4248 14.5262 86.4353 14.2185 86.4419 13.9326C86.4334 13.6499 86.4149 13.3475 86.2548 13.1044C86.123 12.8995 85.8404 12.8442 85.623 12.9278Z" fill="#24335F"/>
<path fill-rule="evenodd" clip-rule="evenodd" d="M92.9546 12.4467C93.2755 12.1706 93.7288 12.1298 94.1346 12.1726C94.4693 12.2036 94.8165 12.3788 94.9562 12.6997C95.1123 13.0686 95.082 13.5226 94.8435 13.85C94.5879 14.2156 94.184 14.4285 93.8315 14.6841C93.7248 14.7526 93.6681 14.8672 93.6108 14.974C94.1023 14.9825 94.5951 14.9753 95.0886 14.9779C95.0873 15.2197 95.0873 15.4608 95.0886 15.7026C94.2459 15.7026 93.4053 15.7026 92.5633 15.7026C92.5659 15.3877 92.5139 15.0425 92.6964 14.7638C92.9895 14.2723 93.5627 14.0747 93.962 13.6906C94.1333 13.5318 94.2295 13.2716 94.1267 13.0489C94.0331 12.8539 93.7551 12.8262 93.5851 12.927C93.4402 13.0113 93.4 13.1846 93.3341 13.3249C93.0831 13.2729 92.8334 13.2215 92.5837 13.1727C92.6265 12.9 92.7365 12.6279 92.9546 12.4467Z" fill="#24335F"/>
<path fill-rule="evenodd" clip-rule="evenodd" d="M96.3258 12.2027C96.7363 12.1039 97.2172 12.15 97.5388 12.4465C97.8794 12.764 97.9907 13.2456 98.0223 13.693C98.0454 14.1917 98.0263 14.7227 97.7779 15.1701C97.3609 15.9528 96.0386 15.9462 95.6314 15.1582C95.3442 14.6094 95.3534 13.9578 95.4351 13.3596C95.5076 12.8589 95.8027 12.3318 96.3258 12.2027ZM96.5512 12.8879C96.399 12.9927 96.3621 13.189 96.3344 13.359C96.2863 13.776 96.281 14.201 96.3449 14.616C96.3746 14.8031 96.4714 15.0436 96.6961 15.0462C96.9458 15.062 97.0492 14.788 97.0776 14.5844C97.1309 14.1041 97.1507 13.6047 97.0315 13.1336C96.9932 12.9208 96.7468 12.7614 96.5512 12.8879Z" fill="#24335F"/>
<path fill-rule="evenodd" clip-rule="evenodd" d="M101.688 12.2322C102.131 12.107 102.633 12.1188 103.052 12.3244C103.456 12.5181 103.603 13.0702 103.382 13.4523C103.297 13.6078 103.145 13.7086 103.007 13.8127C103.227 13.9326 103.451 14.0874 103.545 14.3325C103.675 14.6902 103.603 15.1343 103.312 15.3946C102.966 15.7101 102.467 15.7675 102.018 15.7385C101.639 15.7108 101.227 15.5909 100.996 15.27C100.796 14.9841 100.756 14.5545 100.982 14.2732C101.104 14.1125 101.284 14.0123 101.455 13.9102C101.186 13.7396 100.966 13.4609 100.983 13.1282C100.954 12.7032 101.296 12.3409 101.688 12.2322ZM101.827 13.1242C101.833 13.3996 102.143 13.482 102.347 13.5834C102.492 13.4708 102.659 13.3337 102.648 13.1275C102.631 12.6913 101.851 12.692 101.827 13.1242ZM101.696 14.7285C101.8 15.1778 102.627 15.1877 102.729 14.7338C102.77 14.4122 102.408 14.2956 102.178 14.1902C101.969 14.3035 101.665 14.4412 101.696 14.7285Z" fill="#24335F"/>
<path fill-rule="evenodd" clip-rule="evenodd" d="M46.5945 12.2011C47.4325 12.1997 48.2706 12.2004 49.1086 12.2004C49.1099 12.4626 49.1099 12.7235 49.1086 12.9857C48.5901 12.9857 48.0709 12.9864 47.5518 12.9851C47.5498 13.1656 47.5498 13.3468 47.5498 13.5286C47.922 13.5286 48.2943 13.5279 48.6665 13.5286C48.6678 13.7803 48.6678 14.0313 48.6665 14.283C48.2943 14.2843 47.922 14.283 47.5498 14.2843C47.5518 14.754 47.5452 15.2251 47.5551 15.6955C47.2342 15.7074 46.914 15.7021 46.5945 15.7028C46.5938 14.5353 46.5938 13.3679 46.5945 12.2011Z" fill="#24335F"/>
<path fill-rule="evenodd" clip-rule="evenodd" d="M49.3708 12.2009C50.2102 12.1996 51.0483 12.2003 51.8869 12.2003C51.8876 12.4625 51.8876 12.7234 51.8869 12.9856C51.3671 12.9863 50.8473 12.9856 50.3281 12.9856C50.3268 13.1668 50.3268 13.3466 50.3275 13.5285C50.6991 13.5285 51.072 13.5278 51.4442 13.5285C51.4449 13.7808 51.4442 14.0332 51.4416 14.2848C51.07 14.2829 50.6991 14.2829 50.3275 14.2842C50.3268 14.7566 50.3275 15.2303 50.3275 15.7026C50.0079 15.7026 49.6897 15.7027 49.3708 15.702C49.3708 14.5352 49.3708 13.3677 49.3708 12.2009Z" fill="#24335F"/>
<path fill-rule="evenodd" clip-rule="evenodd" d="M52.1885 12.2009C52.5074 12.1996 52.8262 12.1996 53.1451 12.2003C53.1451 13.3678 53.1451 14.5352 53.1451 15.7026C52.8256 15.7026 52.5074 15.7027 52.1885 15.702C52.1885 14.5352 52.1885 13.3677 52.1885 12.2009Z" fill="#24335F"/>
<path fill-rule="evenodd" clip-rule="evenodd" d="M56.9387 12.2003C57.2576 12.1996 57.5758 12.1996 57.8947 12.2003C57.8947 13.3678 57.8947 14.5352 57.8947 15.7026C57.5752 15.7026 57.2576 15.7027 56.9387 15.702C56.9387 14.5352 56.9387 13.3678 56.9387 12.2003Z" fill="#24335F"/>
<path fill-rule="evenodd" clip-rule="evenodd" d="M58.1794 15.7025C58.5168 14.5351 58.8488 13.367 59.1868 12.1995C59.6098 12.2002 60.0321 12.1989 60.455 12.2008C60.7864 13.369 61.1257 14.5344 61.4585 15.7019C61.1238 15.7025 60.7891 15.7025 60.4557 15.7025C60.3931 15.4469 60.3312 15.1919 60.2699 14.9376C59.9583 14.9376 59.6467 14.9376 59.335 14.9376C59.2744 15.1919 59.2138 15.4456 59.1565 15.7012C58.8304 15.7032 58.5042 15.7025 58.1794 15.7025ZM59.7975 13.0171C59.698 13.396 59.6137 13.7787 59.5129 14.1569C59.7027 14.1622 59.8917 14.1635 60.0815 14.1635C59.9886 13.7807 59.9141 13.3933 59.7975 13.0171Z" fill="#24335F"/>
<path fill-rule="evenodd" clip-rule="evenodd" d="M61.729 12.2009C62.0472 12.1996 62.3654 12.1996 62.6837 12.2003C62.6863 13.1062 62.683 14.0121 62.6856 14.9173C63.1541 14.9173 63.6238 14.9173 64.0929 14.9173C64.0936 15.1789 64.0936 15.4411 64.0936 15.7026C63.3049 15.7026 62.517 15.7026 61.729 15.7026C61.7284 14.5352 61.7284 13.3677 61.729 12.2009Z" fill="#24335F"/>
<path fill-rule="evenodd" clip-rule="evenodd" d="M68.3701 12.2008C69.1923 12.1995 70.0132 12.2001 70.8355 12.2001C70.8361 12.4623 70.8361 12.7232 70.8355 12.9855C70.3321 12.9855 69.8301 12.9855 69.3274 12.9855C69.3254 13.1666 69.3254 13.3478 69.3267 13.5283C69.6851 13.5283 70.0442 13.5277 70.4033 13.5283C70.4039 13.78 70.4033 14.0317 70.4033 14.2827C70.0442 14.284 69.6858 14.2827 69.3274 14.2827C69.3254 14.4948 69.3254 14.7057 69.3274 14.9171C69.84 14.9185 70.3532 14.9165 70.8658 14.9171C70.8658 15.1787 70.8658 15.4403 70.8658 15.7018C70.0343 15.7031 69.2016 15.7025 68.3701 15.7025C68.3701 14.535 68.3701 13.3676 68.3701 12.2008Z" fill="#24335F"/>
<path fill-rule="evenodd" clip-rule="evenodd" d="M71.3093 12.2009C71.6275 12.1996 71.9458 12.1996 72.2646 12.2003C72.2666 13.1062 72.2633 14.0121 72.266 14.9173C72.7344 14.9173 73.2041 14.9173 73.6732 14.9173C73.6739 15.1789 73.6739 15.4411 73.6739 15.7026C72.8859 15.7026 72.098 15.7026 71.3093 15.7026C71.3087 14.5352 71.3087 13.3677 71.3093 12.2009Z" fill="#24335F"/>
<path fill-rule="evenodd" clip-rule="evenodd" d="M82.8619 12.2003C83.1801 12.1996 83.499 12.1996 83.8179 12.2003C83.8179 13.3678 83.8179 14.5352 83.8179 15.7026C83.4977 15.7026 83.1795 15.7026 82.8612 15.7026C82.8612 14.5352 82.8606 13.3678 82.8619 12.2003Z" fill="#24335F"/>
<path fill-rule="evenodd" clip-rule="evenodd" d="M87.8428 12.1998C88.2005 12.1991 88.5576 12.1997 88.916 12.1991C89.2718 12.8375 89.6183 13.4799 89.9754 14.1176C89.9774 13.4785 89.9747 12.8395 89.9761 12.1998C90.2712 12.1991 90.5657 12.1991 90.8622 12.1998C90.8655 13.3646 90.8563 14.5307 90.8655 15.6955C90.5493 15.706 90.233 15.6995 89.9174 15.7061C89.5136 15.0275 89.1288 14.3383 88.7302 13.6564C88.7263 14.3383 88.7296 15.0202 88.7282 15.7021C88.4331 15.7021 88.1373 15.7021 87.8428 15.7021C87.8428 14.5346 87.8428 13.3672 87.8428 12.1998Z" fill="#24335F"/>
<path fill-rule="evenodd" clip-rule="evenodd" d="M98.369 12.508C98.873 12.3459 99.3756 12.1245 99.9192 12.2009C99.9192 13.1365 99.9192 14.0714 99.9192 15.0069C100.108 15.0076 100.299 15.0089 100.492 15.0095C100.492 15.2395 100.492 15.4707 100.492 15.702C99.8204 15.7027 99.1503 15.7026 98.479 15.7026C98.4783 15.4707 98.4783 15.2395 98.4803 15.0089C98.6602 15.0076 98.8407 15.0076 99.0225 15.0076C99.0225 14.3375 99.0225 13.6675 99.0225 12.9968C98.8038 13.0258 98.5864 13.0555 98.369 13.0845C98.367 12.8921 98.3683 12.6997 98.369 12.508Z" fill="#24335F"/>
<path fill-rule="evenodd" clip-rule="evenodd" d="M8.17701 12.7837C8.795 12.6269 9.48679 12.9339 9.78787 13.4939C10.195 14.1876 9.89131 15.1733 9.15868 15.5099C8.41354 15.9033 7.40025 15.4921 7.14067 14.6917C6.83563 13.909 7.35611 12.9523 8.17701 12.7837Z" fill="#24335F"/>
<path fill-rule="evenodd" clip-rule="evenodd" d="M110.48 12.8138C111.024 12.6445 111.655 12.8336 112.016 13.2737C112.371 13.6894 112.455 14.312 112.228 14.8088C111.99 15.3569 111.387 15.716 110.792 15.6606C110.1 15.6297 109.493 15.0328 109.45 14.3423C109.372 13.6716 109.831 12.995 110.48 12.8138Z" fill="#24335F"/>
<path fill-rule="evenodd" clip-rule="evenodd" d="M2.62129 13.4171C3.30581 13.1338 4.16296 13.4711 4.46668 14.1471C4.73746 14.6972 4.61029 15.4107 4.16031 15.8284C3.682 16.3028 2.86439 16.3634 2.31756 15.9714C1.86889 15.667 1.62513 15.0971 1.71012 14.5615C1.77863 14.0529 2.14297 13.5996 2.62129 13.4171Z" fill="#24335F"/>
<path fill-rule="evenodd" clip-rule="evenodd" d="M115.875 13.3771C116.611 13.1557 117.457 13.6248 117.658 14.3666C117.899 15.1118 117.424 15.9874 116.664 16.1824C115.921 16.415 115.056 15.9419 114.86 15.1876C114.622 14.4371 115.111 13.5642 115.875 13.3771Z" fill="#24335F"/>
<path fill-rule="evenodd" clip-rule="evenodd" d="M6.96828 17.0362C7.77139 16.7786 8.701 17.365 8.80839 18.2023C8.97376 19.0305 8.27342 19.8909 7.42814 19.8909C6.66126 19.9449 5.93918 19.292 5.91942 18.5252C5.86144 17.861 6.32789 17.2088 6.96828 17.0362Z" fill="#24335F"/>
<path fill-rule="evenodd" clip-rule="evenodd" d="M111.771 17.0132C112.596 16.8313 113.471 17.5066 113.493 18.3532C113.567 19.1221 112.923 19.8613 112.152 19.8969C111.42 19.972 110.701 19.4041 110.603 18.6767C110.461 17.9237 111.016 17.1351 111.771 17.0132Z" fill="#24335F"/>
<path fill-rule="evenodd" clip-rule="evenodd" d="M55.9427 17.5142C56.8453 17.5129 57.7465 17.5129 58.6491 17.5136C58.6498 22.1834 58.6498 26.8525 58.6491 31.5217C57.8875 31.5065 57.1147 31.5526 56.3604 31.4999C56.3004 31.1073 56.2773 30.71 56.2286 30.3167C55.5908 30.9366 54.8385 31.496 53.9451 31.662C52.6439 31.913 51.2017 31.5434 50.2767 30.5683C49.1955 29.4431 48.7858 27.85 48.683 26.3327C48.5604 24.8457 48.8259 23.2909 49.637 22.0206C50.2101 21.1075 51.1114 20.3775 52.1722 20.1285C53.5122 19.776 55.0302 20.2536 55.9446 21.2893C55.9413 20.031 55.9427 18.7726 55.9427 17.5142ZM52.2822 22.8165C51.7083 23.4029 51.4903 24.2376 51.4007 25.0302C51.3269 25.8234 51.3407 26.6325 51.5166 27.4125C51.6642 28.0463 51.9455 28.6828 52.4666 29.0965C53.0734 29.5814 53.9293 29.6585 54.6573 29.4411C55.1692 29.2876 55.5408 28.887 55.9427 28.5576C55.942 26.7511 55.9433 24.9439 55.942 23.1367C55.5467 22.7842 55.1086 22.4601 54.596 22.3033C53.81 22.0562 52.8666 22.2097 52.2822 22.8165Z" fill="#24335F"/>
<path fill-rule="evenodd" clip-rule="evenodd" d="M1.65343 18.4885C2.33664 18.2019 3.19706 18.5386 3.5021 19.2139C3.763 19.7456 3.65627 20.4334 3.23725 20.8564C2.8716 21.2444 2.28326 21.396 1.77332 21.2418C1.15402 21.0718 0.700083 20.4479 0.733684 19.8055C0.735001 19.2324 1.12043 18.6915 1.65343 18.4885Z" fill="#24335F"/>
<path fill-rule="evenodd" clip-rule="evenodd" d="M116.702 18.4918C117.2 18.2987 117.8 18.4035 118.196 18.7652C118.658 19.1664 118.806 19.8687 118.564 20.4281C118.327 21.0046 117.688 21.3768 117.07 21.301C116.42 21.247 115.859 20.6995 115.782 20.0538C115.676 19.4016 116.081 18.7171 116.702 18.4918Z" fill="#24335F"/>
<path fill-rule="evenodd" clip-rule="evenodd" d="M16.3843 21.1229C17.0504 20.439 17.9985 20.0872 18.9393 20.0226C20.5304 19.9205 22.2084 20.4957 23.2573 21.7297C22.6894 22.2251 22.1228 22.7219 21.5509 23.2121C21.0357 22.6685 20.4223 22.1263 19.6495 22.0321C19.2081 21.9978 18.7304 22.038 18.3516 22.2851C17.9089 22.5717 17.7916 23.2555 18.1296 23.6647C18.3687 23.9611 18.7225 24.1272 19.0638 24.278C20.1654 24.732 21.3691 25.0074 22.3336 25.7413C22.9404 26.1952 23.3824 26.8706 23.5109 27.6216C23.6743 28.5717 23.5445 29.6291 22.9305 30.4032C22.3718 31.1101 21.4956 31.487 20.6259 31.6379C19.4848 31.8283 18.2673 31.7657 17.2098 31.2643C16.3639 30.8736 15.6662 30.2181 15.1411 29.4558C15.7387 28.9966 16.3514 28.5578 16.9496 28.0993C17.4253 28.7304 18.0064 29.3379 18.7746 29.5961C19.4169 29.8096 20.195 29.7944 20.7478 29.3642C21.1945 29.0216 21.348 28.289 20.9474 27.8542C20.5765 27.4563 20.0481 27.2678 19.5546 27.0721C18.4886 26.667 17.3429 26.3349 16.4838 25.5476C15.2386 24.4421 15.2294 22.2956 16.3843 21.1229Z" fill="#24335F"/>
<path fill-rule="evenodd" clip-rule="evenodd" d="M39.8922 21.439C40.8304 20.7887 41.845 20.1437 43.0078 20.0284C43.8775 19.954 44.8163 20.1141 45.5127 20.6734C46.134 21.1669 46.4819 21.9291 46.6163 22.6973C46.7428 23.3364 46.6966 23.9913 46.7052 24.6383C46.6999 26.9343 46.7144 29.231 46.6973 31.5264C45.8006 31.5152 44.9046 31.5257 44.0079 31.5218C44.006 29.0129 44.0086 26.5054 44.0073 23.9979C43.9908 23.5222 43.9414 23.0149 43.6561 22.6176C43.4354 22.3086 43.0401 22.1927 42.6764 22.192C41.6961 22.1683 40.7658 22.6637 40.1155 23.3753C40.105 26.0923 40.1261 28.8093 40.105 31.5257C39.209 31.5158 38.313 31.525 37.417 31.5218C37.417 27.7578 37.415 23.9939 37.4176 20.2307C38.2425 20.2313 39.0674 20.2307 39.8916 20.2307C39.8922 20.6332 39.8916 21.0358 39.8922 21.439Z" fill="#24335F"/>
<path fill-rule="evenodd" clip-rule="evenodd" d="M64.1819 20.2149C64.9903 19.9685 65.8488 19.9764 66.6816 20.0778C67.6039 20.1852 68.5816 20.4896 69.1845 21.2413C69.8729 22.0978 70.006 23.2442 70.0377 24.3062C70.0469 26.2406 70.037 28.1762 70.0423 30.1112C70.0488 30.5875 70.1082 31.0659 70.2538 31.5218C69.3769 31.5198 68.4993 31.5251 67.6217 31.5191C67.5637 31.1956 67.5051 30.8728 67.4471 30.5493C66.4641 31.2391 65.3072 31.7333 64.0897 31.7346C63.1713 31.78 62.1956 31.4783 61.5868 30.7608C60.7567 29.7943 60.6835 28.3436 61.1829 27.2058C61.6323 26.2083 62.5961 25.5639 63.5824 25.17C64.7789 24.6884 66.0596 24.4683 67.3345 24.3089C67.2949 23.7225 67.4774 23.0413 67.0637 22.5504C66.5814 21.9931 65.7552 21.9509 65.0793 22.0794C64.2959 22.2237 63.6694 22.7791 63.2194 23.4102C62.6363 22.9649 62.0526 22.5208 61.4722 22.0761C62.0737 21.1175 63.1179 20.5259 64.1819 20.2149ZM64.8539 26.7736C64.3651 26.9883 63.8749 27.3171 63.6773 27.8363C63.4882 28.3422 63.5383 28.9859 63.9369 29.3812C64.2887 29.7271 64.8322 29.793 65.2947 29.6757C66.0557 29.4853 66.7158 29.0327 67.3266 28.5564C67.343 27.7447 67.3292 26.9317 67.3345 26.12C66.4958 26.286 65.6426 26.4329 64.8539 26.7736Z" fill="#24335F"/>
<path fill-rule="evenodd" clip-rule="evenodd" d="M75.2041 21.4319C76.1298 20.7915 77.1286 20.1577 78.2723 20.0319C79.1301 19.9522 80.0545 20.0964 80.7561 20.6281C81.3458 21.0689 81.7068 21.7541 81.8689 22.4623C82.0665 23.2529 81.9928 24.0732 82.0059 24.8796C82.0059 27.0932 82.0066 29.3069 82.0059 31.5219C81.1066 31.5219 80.208 31.5226 79.3087 31.5219C79.3087 29.0388 79.3087 26.557 79.3087 24.0751C79.2962 23.5856 79.2586 23.0592 78.9746 22.6422C78.7816 22.3556 78.4351 22.2172 78.1004 22.1975C77.1121 22.1303 76.1456 22.602 75.4802 23.3142C75.3767 23.4038 75.4255 23.554 75.4123 23.6733C75.4176 26.2888 75.4136 28.905 75.4143 31.5219C74.515 31.5219 73.6163 31.5226 72.717 31.5219C72.717 27.758 72.717 23.9941 72.7184 20.2309C73.5459 20.2309 74.374 20.2309 75.2028 20.2309C75.2041 20.6314 75.2015 21.0313 75.2041 21.4319Z" fill="#24335F"/>
<path fill-rule="evenodd" clip-rule="evenodd" d="M86.0915 20.7953C87.3202 19.9579 88.935 19.8255 90.3449 20.2234C91.7107 20.599 92.8419 21.6847 93.2741 23.0333C92.5257 23.3265 91.7772 23.6177 91.0268 23.905C90.7495 23.287 90.3858 22.6236 89.7243 22.3548C89.0819 22.1116 88.3026 22.1143 87.7122 22.4931C87.17 22.8541 86.9065 23.4945 86.7714 24.1092C86.5804 25.027 86.5751 25.975 86.6568 26.906C86.7352 27.6096 86.8854 28.3521 87.3512 28.9115C87.8974 29.5624 88.8724 29.6928 89.6459 29.43C90.4207 29.1552 90.9102 28.441 91.291 27.7519C91.9723 28.138 92.6555 28.5221 93.3374 28.9082C92.7213 30.0993 91.7397 31.2002 90.3996 31.5474C88.9021 31.9223 87.1773 31.7919 85.9195 30.8273C84.8601 30.0282 84.2679 28.7514 84.0439 27.4693C83.8264 26.1793 83.8581 24.8353 84.2072 23.5716C84.5129 22.4773 85.1388 21.4409 86.0915 20.7953Z" fill="#24335F"/>
<path fill-rule="evenodd" clip-rule="evenodd" d="M98.1455 20.2222C99.4467 19.8513 100.939 19.9324 102.091 20.6907C103.218 21.4213 103.912 22.6837 104.152 23.9842C104.307 24.7498 104.259 25.5338 104.265 26.3092C101.995 26.3092 99.7234 26.3092 97.4531 26.3092C97.4794 27.1044 97.5908 27.9359 98.0322 28.6178C98.3392 29.102 98.8544 29.4479 99.4243 29.5269C100.081 29.6139 100.783 29.5026 101.34 29.129C101.714 28.8819 102.015 28.5446 102.309 28.2086C102.962 28.6105 103.609 29.0262 104.267 29.4209C103.607 30.5225 102.472 31.3111 101.216 31.568C99.8117 31.8559 98.2305 31.8487 96.9998 31.0205C95.6999 30.1693 95.0312 28.6375 94.8382 27.1413C94.6458 25.5674 94.7598 23.8966 95.4884 22.4643C96.0234 21.3989 96.9919 20.5503 98.1455 20.2222ZM97.9775 22.7805C97.6079 23.2634 97.4788 23.8821 97.4531 24.4777C98.8972 24.4777 100.341 24.4783 101.786 24.477C101.759 23.888 101.635 23.2786 101.276 22.799C100.523 21.7587 98.7444 21.7521 97.9775 22.7805Z" fill="#24335F"/>
<path fill-rule="evenodd" clip-rule="evenodd" d="M25.5817 20.231C26.481 20.2303 27.3803 20.2303 28.2796 20.231C28.2796 22.612 28.2776 24.9924 28.2803 27.374C28.2908 27.9281 28.2829 28.5184 28.5629 29.0159C28.7434 29.342 29.1064 29.5271 29.4708 29.5456C30.4953 29.6273 31.4921 29.1239 32.1713 28.3788C32.1726 25.6657 32.1792 22.9526 32.168 20.2395C33.0719 20.2198 33.9772 20.2349 34.8811 20.231C34.8804 23.9936 34.8811 27.7575 34.8804 31.5207C34.051 31.5194 33.2215 31.526 32.3927 31.5174C32.3966 31.1156 32.3953 30.713 32.394 30.3111C31.5138 30.9238 30.571 31.5267 29.4899 31.694C28.6222 31.8087 27.6834 31.696 26.9455 31.1959C26.3518 30.796 25.9618 30.1497 25.776 29.4665C25.579 28.7899 25.5777 28.0783 25.5817 27.3793C25.583 24.9963 25.5817 22.6133 25.5817 20.231Z" fill="#24335F"/>
<path fill-rule="evenodd" clip-rule="evenodd" d="M6.39973 21.4563C6.9683 21.2975 7.61858 21.5248 7.95722 22.0084C8.36306 22.5486 8.31563 23.3695 7.84522 23.8551C7.38469 24.3749 6.54006 24.4704 5.97017 24.0784C5.47868 23.7622 5.22767 23.135 5.35087 22.5651C5.45365 22.036 5.87925 21.5907 6.39973 21.4563Z" fill="#24335F"/>
<path fill-rule="evenodd" clip-rule="evenodd" d="M112.265 21.4621C113.085 21.2196 114.011 21.8475 114.08 22.7C114.203 23.5038 113.528 24.303 112.717 24.326C111.969 24.3893 111.251 23.7812 111.187 23.0334C111.093 22.337 111.582 21.6261 112.265 21.4621Z" fill="#24335F"/>
<path fill-rule="evenodd" clip-rule="evenodd" d="M1.57372 23.5606C2.27472 23.4005 3.04291 23.8459 3.25242 24.5337C3.44876 25.1109 3.23463 25.7954 2.74117 26.1551C2.24309 26.5386 1.49335 26.5379 0.994616 26.1564C0.572304 25.8488 0.347633 25.3006 0.425376 24.7848C0.499165 24.1878 0.982744 23.672 1.57372 23.5606Z" fill="#24335F"/>
<path fill-rule="evenodd" clip-rule="evenodd" d="M117.083 23.614C117.717 23.3926 118.478 23.6759 118.805 24.2636C119.108 24.7749 119.055 25.4732 118.667 25.9272C118.296 26.391 117.628 26.5715 117.071 26.3752C116.481 26.1828 116.064 25.5813 116.089 24.9626C116.093 24.3618 116.512 23.7965 117.083 23.614Z" fill="#24335F"/>
<path fill-rule="evenodd" clip-rule="evenodd" d="M6.3233 25.8884C7.00783 25.6486 7.82808 26.0116 8.10809 26.6797C8.36569 27.2397 8.21679 27.9506 7.75428 28.3571C7.31023 28.7669 6.60528 28.8492 6.07954 28.5528C5.59793 28.3004 5.29223 27.7569 5.3232 27.214C5.33506 26.6204 5.75736 26.0657 6.3233 25.8884Z" fill="#24335F"/>
<path fill-rule="evenodd" clip-rule="evenodd" d="M112.187 25.8941C113 25.6036 113.965 26.1965 114.074 27.051C114.214 27.8106 113.651 28.6078 112.885 28.7165C112.125 28.8707 111.322 28.3107 111.202 27.5465C111.057 26.8501 111.506 26.0984 112.187 25.8941Z" fill="#24335F"/>
<path fill-rule="evenodd" clip-rule="evenodd" d="M1.90446 28.7182C2.5791 28.5482 3.33347 28.935 3.58448 29.5846C3.81705 30.1367 3.66421 30.8232 3.21357 31.2204C2.7537 31.648 2.00987 31.7146 1.4782 31.3838C0.968918 31.0847 0.68628 30.4516 0.804211 29.8718C0.899083 29.3131 1.3517 28.8388 1.90446 28.7182Z" fill="#24335F"/>
<path fill-rule="evenodd" clip-rule="evenodd" d="M116.864 28.7224C117.288 28.6315 117.748 28.7337 118.087 29.0071C118.509 29.3378 118.717 29.9149 118.603 30.4387C118.503 30.975 118.07 31.425 117.543 31.5561C117.021 31.6984 116.429 31.5146 116.078 31.1048C115.733 30.7167 115.627 30.1403 115.805 29.6547C115.966 29.1876 116.382 28.8239 116.864 28.7224Z" fill="#24335F"/>
<path fill-rule="evenodd" clip-rule="evenodd" d="M6.96937 30.318C7.61634 30.086 8.39508 30.3832 8.71725 30.9906C9.09279 31.6356 8.86417 32.5415 8.22379 32.9283C7.51554 33.4059 6.4423 33.0884 6.11354 32.2978C5.75119 31.5506 6.17679 30.565 6.96937 30.318Z" fill="#24335F"/>
<path fill-rule="evenodd" clip-rule="evenodd" d="M111.54 30.3117C111.961 30.1865 112.439 30.2517 112.799 30.506C113.216 30.7893 113.465 31.3013 113.422 31.8053C113.392 32.3883 112.971 32.9246 112.413 33.0939C111.859 33.2751 111.209 33.088 110.844 32.6321C110.465 32.1848 110.407 31.5035 110.698 30.9949C110.875 30.6694 111.185 30.4191 111.54 30.3117Z" fill="#24335F"/>
<path fill-rule="evenodd" clip-rule="evenodd" d="M16.8882 33.8656C17.2045 33.6041 17.6465 33.7036 18.0247 33.6851C18.0247 33.8821 18.0247 34.0784 18.0247 34.2748C17.8356 34.2958 17.5694 34.2207 17.4522 34.4171C17.3942 34.5732 17.4291 34.7478 17.4199 34.9118C17.6215 34.9118 17.8224 34.9118 18.024 34.9118C18.0247 35.1102 18.0247 35.3085 18.024 35.5068C17.8224 35.5055 17.6221 35.5068 17.4212 35.5068C17.4212 36.3178 17.4219 37.1295 17.4199 37.9412C17.1755 37.9418 16.9304 37.9418 16.686 37.9412C16.6846 37.1295 16.6866 36.3185 16.686 35.5068C16.5483 35.5055 16.4106 35.5055 16.2742 35.5055C16.2722 35.3071 16.2742 35.1082 16.2801 34.9092C16.4152 34.9099 16.5496 34.9105 16.686 34.9132C16.7004 34.564 16.6141 34.1404 16.8882 33.8656Z" fill="#24335F"/>
<path fill-rule="evenodd" clip-rule="evenodd" d="M18.3364 33.6866C18.5776 33.6846 18.8194 33.6846 19.0611 33.6853C19.0611 33.9132 19.0611 34.1412 19.0611 34.3691C18.8194 34.3691 18.5776 34.3691 18.3364 34.3691C18.3364 34.1412 18.3364 33.9132 18.3364 33.6866Z" fill="#24335F"/>
<path fill-rule="evenodd" clip-rule="evenodd" d="M27.1436 33.8239C27.4658 33.6177 27.8683 33.7008 28.2287 33.6863C28.2287 33.8826 28.2287 34.0789 28.2287 34.2753C28.0298 34.2917 27.7339 34.2206 27.6378 34.4538C27.6167 34.6053 27.6246 34.7588 27.6246 34.913C27.8255 34.9117 28.0265 34.9117 28.2287 34.913C28.2287 35.11 28.2287 35.3083 28.2287 35.5066C28.0265 35.5053 27.8262 35.5066 27.6246 35.5066C27.6246 36.3176 27.6259 37.1293 27.6246 37.9417C27.3795 37.9417 27.1357 37.9416 26.8906 37.941C26.8893 37.1293 26.8906 36.3183 26.8906 35.5066C26.7523 35.5066 26.6146 35.5053 26.4775 35.5053C26.4769 35.3076 26.4769 35.11 26.4775 34.913C26.6146 34.9117 26.7523 34.9117 26.89 34.9117C26.9018 34.546 26.8129 34.0796 27.1436 33.8239Z" fill="#24335F"/>
<path fill-rule="evenodd" clip-rule="evenodd" d="M35.7361 33.6865C35.9805 33.6845 36.225 33.6845 36.4701 33.6852C36.4701 33.9125 36.4701 34.1404 36.4701 34.369C36.2243 34.3703 35.9792 34.3697 35.7341 34.3651C35.7348 34.1384 35.7361 33.9118 35.7361 33.6865Z" fill="#24335F"/>
<path fill-rule="evenodd" clip-rule="evenodd" d="M2.78076 33.7883C3.55094 33.4984 4.48779 33.9979 4.66897 34.8016C4.87716 35.5408 4.39754 36.3782 3.65372 36.568C2.91714 36.7959 2.0633 36.3281 1.86103 35.5843C1.62781 34.8629 2.05802 34.0176 2.78076 33.7883Z" fill="#24335F"/>
<path fill-rule="evenodd" clip-rule="evenodd" d="M19.7553 33.7458C20.0004 33.7451 20.2449 33.7444 20.4899 33.7451C20.4906 35.1431 20.4906 36.5418 20.4899 37.9412C20.2435 37.9445 19.9971 37.9432 19.7507 37.9346C19.7619 36.5386 19.752 35.1418 19.7553 33.7458Z" fill="#24335F"/>
<path fill-rule="evenodd" clip-rule="evenodd" d="M42.4993 33.7449C42.7398 33.7442 42.9815 33.7442 43.2227 33.7455C43.222 35.1442 43.224 36.5429 43.222 37.9417C42.9802 37.9417 42.7398 37.9416 42.4993 37.941C42.498 36.5423 42.498 35.1442 42.4993 33.7449Z" fill="#24335F"/>
<path fill-rule="evenodd" clip-rule="evenodd" d="M115.728 33.7787C116.414 33.5534 117.223 33.9276 117.493 34.597C117.744 35.161 117.584 35.8745 117.111 36.2744C116.628 36.7053 115.851 36.7468 115.324 36.3712C114.846 36.0504 114.604 35.4285 114.73 34.8684C114.832 34.3592 115.23 33.9256 115.728 33.7787Z" fill="#24335F"/>
<path fill-rule="evenodd" clip-rule="evenodd" d="M33.9659 33.9162C34.2064 33.9155 34.4475 33.9155 34.6893 33.9162C34.6893 34.2482 34.6893 34.5796 34.6893 34.9117C34.8869 34.9117 35.0846 34.9117 35.2822 34.913C35.2822 35.11 35.2822 35.3076 35.2822 35.5053C35.0846 35.5053 34.8869 35.5066 34.6893 35.5066C34.6978 36.0969 34.6715 36.6892 34.7005 37.2788C34.7914 37.5075 35.1011 37.3724 35.2822 37.3579C35.271 37.5536 35.3178 37.7671 35.2565 37.9535C34.9673 37.9983 34.6636 38.0332 34.3763 37.9594C34.1108 37.8949 33.9586 37.6149 33.9665 37.3553C33.96 36.7386 33.9672 36.1233 33.9646 35.5066C33.8242 35.5066 33.6826 35.5053 33.5422 35.5066C33.5416 35.3083 33.5416 35.11 33.5422 34.913C33.6826 34.9117 33.8229 34.9117 33.9639 34.9117C33.9646 34.5796 33.9639 34.2482 33.9659 33.9162Z" fill="#24335F"/>
<path fill-rule="evenodd" clip-rule="evenodd" d="M8.33846 34.51C8.77131 34.3914 9.25686 34.483 9.61131 34.761C10.0053 35.0601 10.2253 35.57 10.1707 36.0622C10.1305 36.5306 9.84058 36.9654 9.42881 37.1908C8.92546 37.4747 8.25214 37.4207 7.80611 37.0504C7.41872 36.7441 7.21053 36.2295 7.27575 35.7394C7.33636 35.1635 7.77779 34.6529 8.33846 34.51Z" fill="#24335F"/>
<path fill-rule="evenodd" clip-rule="evenodd" d="M110.334 34.5114C110.82 34.3849 111.366 34.5324 111.719 34.8915C112.029 35.1965 112.187 35.6459 112.138 36.0781C112.09 36.5939 111.74 37.0676 111.262 37.2646C110.763 37.4814 110.147 37.3878 109.74 37.0281C109.374 36.7185 109.182 36.221 109.245 35.7467C109.306 35.1623 109.762 34.6471 110.334 34.5114Z" fill="#24335F"/>
<path fill-rule="evenodd" clip-rule="evenodd" d="M21.848 35.2187C22.2809 34.772 23.1525 34.6778 23.501 35.2721C23.8324 34.9499 24.3252 34.7667 24.7811 34.8972C25.1033 34.9967 25.2687 35.3459 25.2733 35.6641C25.2897 36.4224 25.2759 37.1827 25.2799 37.9417C25.0354 37.9417 24.7904 37.9416 24.5466 37.941C24.5426 37.2347 24.5499 36.5278 24.544 35.8209C24.5512 35.6713 24.4807 35.4941 24.3173 35.4651C24.0327 35.3821 23.8015 35.616 23.5893 35.7662C23.59 36.4909 23.5893 37.2163 23.5893 37.941C23.3475 37.9416 23.107 37.9416 22.8659 37.941C22.8639 37.2631 22.8666 36.5845 22.8659 35.9065C22.8672 35.7491 22.8521 35.5369 22.6742 35.4796C22.3823 35.359 22.1293 35.6061 21.9093 35.7622C21.908 36.4883 21.9099 37.2143 21.908 37.9417C21.6675 37.9417 21.4257 37.9417 21.1846 37.9417C21.1846 36.9317 21.1846 35.9223 21.1846 34.913C21.4059 34.9117 21.6266 34.9117 21.848 34.913C21.848 34.9894 21.848 35.1423 21.848 35.2187Z" fill="#24335F"/>
<path fill-rule="evenodd" clip-rule="evenodd" d="M28.6635 35.3366C29.0957 34.7246 30.1268 34.6798 30.5932 35.2754C30.8917 35.6259 30.9312 36.1101 30.9174 36.5515C30.306 36.5562 29.6939 36.5469 29.0819 36.5568C29.1023 36.8757 29.186 37.2703 29.5332 37.381C29.8646 37.4983 30.1815 37.296 30.3897 37.0496C30.5682 37.1596 30.7461 37.271 30.9233 37.3843C30.5722 37.9456 29.8198 38.1163 29.213 37.9344C28.7689 37.7902 28.4889 37.354 28.4053 36.9119C28.3084 36.3822 28.3453 35.7893 28.6635 35.3366ZM29.2426 35.5877C29.1346 35.7161 29.1129 35.8868 29.0779 36.0456C29.4699 36.0521 29.8613 36.0495 30.2533 36.0482C30.2177 35.8986 30.2012 35.7359 30.1044 35.6101C29.9114 35.3367 29.4502 35.3268 29.2426 35.5877Z" fill="#24335F"/>
<path fill-rule="evenodd" clip-rule="evenodd" d="M31.5954 35.0422C32.1343 34.6937 32.8973 34.8524 33.3216 35.3123C33.168 35.4494 33.0126 35.5851 32.8564 35.7188C32.6627 35.5376 32.4236 35.3308 32.1357 35.4138C31.9314 35.4309 31.7983 35.701 31.9551 35.8552C32.3037 36.1293 32.805 36.1253 33.1285 36.4448C33.5324 36.8006 33.4856 37.5543 33.0126 37.8304C32.3887 38.1782 31.5262 37.9984 31.125 37.3969C31.2851 37.2684 31.4485 37.1439 31.6152 37.0233C31.8201 37.2677 32.104 37.5339 32.4545 37.443C32.6884 37.4199 32.8696 37.0866 32.6495 36.9265C32.2859 36.6728 31.7964 36.6478 31.4755 36.3243C31.1079 35.983 31.1751 35.311 31.5954 35.0422Z" fill="#24335F"/>
<path fill-rule="evenodd" clip-rule="evenodd" d="M39.5105 35.4065C39.9157 34.8399 40.7353 34.72 41.3473 34.9901C41.6069 35.1113 41.7492 35.3887 41.7874 35.6634C41.8863 36.4191 41.7578 37.1873 41.8652 37.9423C41.6319 37.941 41.3987 37.9417 41.1662 37.9417C41.1543 37.8804 41.1332 37.7572 41.1213 37.6959C40.7366 37.9463 40.2319 38.115 39.7885 37.9199C39.2575 37.6696 39.2246 36.8638 39.6482 36.4982C40.0461 36.1536 40.5917 36.0778 41.0943 36.0014C41.0798 35.8209 41.1306 35.5778 40.9395 35.475C40.5989 35.2774 40.195 35.4763 39.9849 35.7688C39.8248 35.6496 39.666 35.529 39.5105 35.4065ZM40.2102 36.8203C40.0066 36.9903 40.0606 37.3975 40.3439 37.4462C40.6292 37.4937 40.8789 37.2973 41.0924 37.1353C41.0884 36.9225 41.0884 36.7097 41.0884 36.4982C40.7873 36.57 40.4454 36.5957 40.2102 36.8203Z" fill="#24335F"/>
<path fill-rule="evenodd" clip-rule="evenodd" d="M18.3369 34.9132C18.5774 34.9119 18.8185 34.9119 19.0597 34.9119C19.0583 35.9232 19.0695 36.9345 19.0544 37.9458C18.8152 37.9418 18.5761 37.9399 18.3369 37.9418C18.3363 36.9319 18.3363 35.9225 18.3369 34.9132Z" fill="#24335F"/>
<path fill-rule="evenodd" clip-rule="evenodd" d="M35.7363 34.913C35.9807 34.9117 36.2251 34.9117 36.4702 34.913C36.4702 35.9223 36.4709 36.9317 36.4702 37.9417C36.2251 37.9417 35.9807 37.9416 35.7369 37.941C35.735 36.931 35.7363 35.9223 35.7363 34.913Z" fill="#24335F"/>
<path fill-rule="evenodd" clip-rule="evenodd" d="M36.8438 34.9137C37.0829 34.9315 37.353 34.8689 37.5744 34.942C37.7602 35.6088 37.9038 36.2874 38.0764 36.9574C38.2497 36.2762 38.4177 35.5936 38.5883 34.913C38.8321 34.9117 39.0759 34.9117 39.3203 34.913C39.0634 35.8222 38.7979 36.7281 38.5429 37.6373C38.4994 37.7315 38.508 37.8686 38.4236 37.9351C38.1785 37.9542 37.9328 37.9371 37.6884 37.941C37.4064 36.9317 37.1244 35.9224 36.8438 34.9137Z" fill="#24335F"/>
<path fill-rule="evenodd" clip-rule="evenodd" d="M10.2616 38.5108C10.9712 38.3606 11.742 38.8277 11.9304 39.53C12.1116 40.1177 11.8724 40.8029 11.3599 41.1448C10.8229 41.523 10.0317 41.4716 9.55138 41.0216C9.08163 40.6079 8.94195 39.8785 9.21603 39.3172C9.40972 38.9015 9.81096 38.5925 10.2616 38.5108Z" fill="#24335F"/>
<path fill-rule="evenodd" clip-rule="evenodd" d="M108.565 38.5268C109.087 38.4076 109.667 38.6045 110.004 39.0229C110.383 39.4696 110.441 40.1502 110.153 40.6588C109.862 41.199 109.209 41.5041 108.608 41.3815C107.931 41.2695 107.397 40.6186 107.424 39.9314C107.415 39.2726 107.921 38.6579 108.565 38.5268Z" fill="#24335F"/>
<path fill-rule="evenodd" clip-rule="evenodd" d="M4.53833 38.6672C5.23274 38.4221 6.06485 38.795 6.33827 39.4789C6.57347 40.0172 6.44171 40.6918 6.01281 41.0957C5.63266 41.4765 5.03378 41.6056 4.52713 41.431C3.9388 41.2393 3.51583 40.6384 3.54218 40.0185C3.54416 39.4163 3.9658 38.8497 4.53833 38.6672Z" fill="#24335F"/>
<path fill-rule="evenodd" clip-rule="evenodd" d="M113.882 38.7012C114.395 38.4989 115.022 38.6142 115.418 39.003C115.855 39.4075 115.993 40.0907 115.753 40.6349C115.496 41.2674 114.757 41.6435 114.094 41.4802C113.397 41.3411 112.882 40.6316 112.964 39.9253C113.005 39.3871 113.38 38.8949 113.882 38.7012Z" fill="#24335F"/>
<path fill-rule="evenodd" clip-rule="evenodd" d="M12.5214 42.3097C13.0314 42.1779 13.6078 42.3407 13.959 42.7373C14.3642 43.1662 14.4571 43.8507 14.187 44.3745C13.8641 45.0643 12.9582 45.3786 12.275 45.0458C11.6215 44.7599 11.269 43.9601 11.495 43.2835C11.6373 42.8098 12.0418 42.429 12.5214 42.3097Z" fill="#24335F"/>
<path fill-rule="evenodd" clip-rule="evenodd" d="M106.294 42.2894C106.987 42.1636 107.721 42.6162 107.919 43.2928C108.097 43.8528 107.901 44.511 107.433 44.8707C106.938 45.2766 106.172 45.2884 105.663 44.903C105.152 44.54 104.935 43.8272 105.153 43.2408C105.323 42.746 105.777 42.3678 106.294 42.2894Z" fill="#24335F"/>
<path fill-rule="evenodd" clip-rule="evenodd" d="M6.96437 43.1897C7.68909 42.9203 8.56929 43.3373 8.81306 44.0713C9.10361 44.8131 8.65824 45.7276 7.89399 45.9529C7.15281 46.2158 6.26732 45.7579 6.05188 45.0022C5.80746 44.2788 6.23636 43.4217 6.96437 43.1897Z" fill="#24335F"/>
<path fill-rule="evenodd" clip-rule="evenodd" d="M111.466 43.2062C111.98 43.0145 112.596 43.1417 112.987 43.5297C113.407 43.9277 113.541 44.5845 113.322 45.1182C113.096 45.7091 112.45 46.0998 111.822 46.0241C111.166 45.9694 110.594 45.4179 110.525 44.7624C110.426 44.1062 110.84 43.4243 111.466 43.2062Z" fill="#24335F"/>
<path fill-rule="evenodd" clip-rule="evenodd" d="M10.3381 47.1176C10.7591 47.0148 11.2243 47.1097 11.5688 47.3765C11.9714 47.6783 12.1921 48.2014 12.1295 48.7015C12.0761 49.2134 11.7263 49.6792 11.2506 49.8762C10.7657 50.0837 10.1695 50.004 9.76297 49.6653C9.36438 49.3511 9.16212 48.8154 9.2425 48.3154C9.31761 47.7409 9.77615 47.2487 10.3381 47.1176Z" fill="#24335F"/>
<path fill-rule="evenodd" clip-rule="evenodd" d="M108.32 47.1418C109.157 46.8704 110.122 47.5141 110.179 48.3943C110.294 49.2349 109.54 50.0473 108.693 49.9979C107.872 50.0031 107.171 49.2073 107.282 48.3929C107.331 47.8152 107.763 47.298 108.32 47.1418Z" fill="#24335F"/>
</svg>
