<svg width="63" height="40" viewBox="0 0 63 40" fill="none" xmlns="http://www.w3.org/2000/svg">
<g clip-path="url(#clip0_31_391)">
<path d="M22.179 0.363858C20.6699 1.16386 19.9062 2.69113 20.0699 4.56386C20.1608 5.70931 20.4881 6.4184 21.2153 7.16386C22.1062 8.03659 22.7062 8.27295 24.2153 8.27295C25.4335 8.27295 25.6881 8.2184 26.4699 7.72749C28.0699 6.74568 28.7608 4.72749 28.179 2.67295C27.9426 1.83659 26.9608 0.691131 26.1244 0.291131C25.2335 -0.127051 23.0335 -0.0906878 22.179 0.363858Z" fill="#24335F"/>
<path d="M5.08793 0.890926L4.56066 1.4182V7.07275V12.7273H2.85157C1.26975 12.7273 1.12429 12.7637 0.669749 13.2C0.215203 13.6727 0.197021 13.7637 0.197021 15.7091C0.197021 18.0364 0.360658 18.4182 1.43339 18.7273C1.79702 18.8182 2.65157 18.9091 3.34248 18.9091H4.56066V26.3455C4.56066 30.5455 4.63339 34.2 4.74248 34.7455C5.16066 37.0182 6.36066 38.6 8.32429 39.5091C10.0516 40.2909 16.4152 40.1273 17.197 39.2727C17.4697 38.9818 17.5061 38.6 17.4334 36.8182C17.3607 34.2 17.3425 34.2 15.1243 34.2182C13.2697 34.2364 12.6879 34.0364 12.197 33.2364C11.8516 32.6727 11.8334 32.3091 11.8334 25.7637V18.9091H16.197H20.5607V28.5455C20.5607 38.8727 20.5607 38.9818 21.4516 39.4546C21.6516 39.5455 22.9243 39.6364 24.2879 39.6364H26.7788L27.3061 39.1091L27.8334 38.5818V26.1818V13.7818L27.3061 13.2546L26.7788 12.7273H19.3061H11.8516L11.797 6.98184L11.7425 1.23638L11.2334 0.800018C10.7425 0.381836 10.597 0.363655 8.17884 0.363655H5.6152L5.08793 0.890926Z" fill="#24335F"/>
<path d="M38.2335 0.654659C35.6698 1.32738 34.3244 2.81829 33.7244 5.61829C33.5789 6.36375 33.4698 7.94557 33.4698 9.76375V12.7274H31.7607C30.1789 12.7274 30.0335 12.7637 29.5789 13.2001C29.1244 13.6728 29.1062 13.7637 29.1062 15.7092C29.1062 18.0365 29.2698 18.4183 30.3426 18.7274C30.7062 18.8183 31.5607 18.9092 32.2517 18.9092H33.4698V28.7456V38.5819L33.9971 39.1092L34.5244 39.6365H37.088C39.5062 39.6365 39.6517 39.6183 40.1426 39.2001L40.6517 38.7637L40.7062 28.8365L40.7426 18.9092H44.6517H48.5607V28.8001V38.6728L49.0335 39.1637C49.5062 39.6365 49.5607 39.6365 52.0335 39.6365C54.4517 39.6365 54.5426 39.6183 55.088 39.1637L55.6517 38.691V28.8001V18.9092H58.1062C61.8698 18.9092 62.3789 18.5274 62.3789 15.7274C62.3789 14.2183 62.0698 13.2365 61.5062 12.9274C61.288 12.8001 60.0335 12.7274 58.488 12.7274H55.8335V10.4547C55.8335 7.78193 55.9971 7.29102 57.1607 6.69102C57.7607 6.38193 58.3244 6.27284 59.8335 6.21829C62.3971 6.12738 62.3789 6.14557 62.3789 3.54557C62.3789 1.67284 62.3426 1.49102 61.9607 1.12738C61.3789 0.581932 60.0153 0.36375 57.088 0.36375C53.4335 0.36375 51.9607 0.763748 50.5062 2.16375C48.9426 3.63647 48.5607 5.05466 48.5607 9.40011V12.7274H44.6517H40.7426V10.4728C40.7426 8.45466 40.7789 8.18193 41.1607 7.61829C41.8153 6.63647 42.7244 6.29102 44.9789 6.18193C47.4698 6.07284 47.4698 6.07284 47.4698 3.5092C47.4698 1.76375 47.4335 1.58193 47.0517 1.20011C46.7971 0.945568 46.2153 0.691021 45.6698 0.563747C44.3062 0.272839 39.4153 0.327385 38.2335 0.654659Z" fill="#24335F"/>
</g>
<defs>
<clipPath id="clip0_31_391">
<rect width="62.1818" height="40" fill="white" transform="translate(0.197021)"/>
</clipPath>
</defs>
</svg>
